<?xml version="1.0" encoding="utf-8"?>
<!-- Generator: Adobe Illustrator 15.0.0, SVG Export Plug-In . SVG Version: 6.00 Build 0)  -->
<!DOCTYPE svg PUBLIC "-//W3C//DTD SVG 1.1//EN" "http://www.w3.org/Graphics/SVG/1.1/DTD/svg11.dtd">
<svg version="1.1" id="Ebene_1" xmlns="http://www.w3.org/2000/svg" xmlns:xlink="http://www.w3.org/1999/xlink" x="0px" y="0px"
	 width="841.89px" height="1190.55px" viewBox="0 0 841.89 1190.55" enable-background="new 0 0 841.89 1190.55"
	 xml:space="preserve">
<g>
	<g>
		<g>
			<path fill="#5A2B33" stroke="#5A0F23" stroke-width="7" stroke-miterlimit="10" d="M256.501,673.674
				c8.069,2.064,15.27-0.559,18.709,7.156c2.811,6.303,0.697,17.188,0.697,24.152c0,16.148-0.615,30.877,1.8,46.518
				c2.801,18.129,1.134,37.209,3.745,55.461c0.755,5.283,6.919,20.402,4.686,25.07c-1.987,4.154-16.095,5.631-19.52,1.859
				c-2.688-2.961-1.59-18.221-1.801-22.459c-0.372-7.475-1.163-14.434-1.87-21.646c-1.382-14.113-1.827-28.1-1.827-42.559
				c0-24.75,5.405-51.248-4.621-72.66"/>
			<path fill="#5A2B33" stroke="#5A0F23" stroke-width="7" stroke-miterlimit="10" d="M556.906,667.711
				c0,27.357,3.652,51.576,6.695,78.295c3.379,29.65,4.238,60.033,5.438,89.867c4.162,0.236,8.516,0.268,12.68,0
				c5.373-34.721,5.051-72.836-0.785-107.314c-2.674-15.811-3.92-31.393-5.338-47.172
				C574.049,664.178,569.057,667.711,556.906,667.711"/>
			<g>
				<path fill="#5A2B33" d="M238.523,661.992c-0.104,4.334-0.137,16.803,6.448,19.695c4.959,2.182,16.626,0.893,22.2,0.879
					c16.221-0.041,31.995-0.895,48.054-0.895c40.438,0,82.575-0.688,122.679-4.475c28.549-2.695,58.303-0.406,86.313-5.365
					c25.713-4.557,49.756,0.23,75.477-1.031c7.457-20.143-13.953-18.447-28.486-17.756c-23.502,1.119-47.586,1.789-71.365,1.789
					c-67.203,0-134.021,10.732-201.5,10.732c-19.597,0-41.345,2.553-59.814-0.895"/>
				<g>
					<path fill="#5A0F23" d="M233.662,661.582c-0.162,7.846,0.41,17.289,7.324,22.268c3.534,2.543,9.406,2.209,13.494,2.191
						c6.356-0.027,12.726-0.367,19.085-0.459c31.98-0.469,63.995-0.621,95.969-1.467c31.811-0.842,63.437-4.455,95.218-5.299
						c15.707-0.416,31.424-0.563,47.059-2.297c7.535-0.836,14.957-2.389,22.512-3.068c8.105-0.729,16.277-0.604,24.4-0.346
						c13.211,0.422,26.383,1.361,39.607,0.785c1.645-0.07,2.842-1.033,3.375-2.568c2.637-7.6,2.277-15.857-5.637-19.875
						c-7.205-3.656-16.461-2.783-24.25-2.408c-31.623,1.525-63.23,1.301-94.859,2.227c-32.631,0.955-65.16,3.973-97.694,6.494
						c-16.293,1.264-32.599,2.385-48.926,3.119c-15.825,0.713-31.656,0.541-47.482,1.094c-14.891,0.52-30.005,1.52-44.764-1.082
						c-4.414-0.777-6.301,5.967-1.861,6.75c14.233,2.508,28.657,1.998,43.033,1.463c15.714-0.584,31.438-0.455,47.153-1.061
						c32.654-1.26,65.205-4.371,97.783-6.813c32.518-2.438,64.896-2.971,97.479-3.51c16.063-0.266,32.117-0.83,48.162-1.584
						c7.529-0.355,17.285-1.898,24.1,2.127c3.941,2.33,2.184,7.83,1.016,11.197c1.125-0.855,2.25-1.713,3.375-2.568
						c-15.713,0.684-31.379-0.729-47.078-0.965c-15.896-0.238-31.135,2.957-46.885,4.328c-15.684,1.363-31.459,1.262-47.182,1.787
						c-15.771,0.525-31.469,2.313-47.215,3.313c-31.988,2.027-64.063,2.396-96.106,2.406c-16.021,0.004-32.033,0.822-48.055,0.895
						c-5.167,0.023-10.307,0.51-15.479,0.322c-6.28-0.229-8.211-3.137-9.277-9.039c-0.493-2.727-0.449-5.596-0.392-8.357
						C240.756,657.064,233.755,657.074,233.662,661.582L233.662,661.582z"/>
				</g>
			</g>
		</g>
	</g>
</g>
<g>
	<g>
		<g>
			
				<ellipse transform="matrix(-0.9961 0.0881 -0.0881 -0.9961 1045.8291 1238.259)" fill="#010202" stroke="#010202" stroke-miterlimit="10" cx="495.591" cy="642.207" rx="19.001" ry="10.061"/>
			
				<ellipse transform="matrix(-0.9961 0.0881 -0.0881 -0.9961 726.8492 1258.3574)" fill="#010202" stroke="#010202" stroke-miterlimit="10" cx="335.655" cy="645.219" rx="18.999" ry="10.061"/>
			<path fill="#AF9E9F" stroke="#010202" stroke-miterlimit="10" d="M376.884,573.689c-0.232-2.627,0.27,3.044,0.353,3.984
				c0.273,3.09-2.322,2.449-2.187,5.547c0.26,5.811-3.02,14.538-4.938,19.846c-3.464,9.59-3.402,17.318-10.094,24.135
				c-3.71,3.781-5.932,7.184-10.346,9.781c-5.392,3.174-10.461,2.256-17.188,2.207c-3.732-0.025-10.737,0.586-13.557-2.131
				c-4.353-4.193,0.159-12.211,2.476-16.982c6.737-13.879,7.565-30.625,17.676-42.658c4.58-5.453,10.323-11.104,17.469-14.18
				c2.98-1.284,6.479-2.328,9.859-2.01c3.725,0.35,5.779,2.644,9.505,2.62c2.326,3.611,3.265,9.545,0.423,11.225"/>
			<path fill="#AF9E9F" stroke="#010202" stroke-miterlimit="10" d="M530.213,530.354c-1.484-2.04,5.92,2.679-5.83,51.349
				c-2.359,9.774-0.813,18.258-5.283,27.286c-3.904,7.885-10.229,14.869-11.342,24.33c-0.486,0.65-1.061-0.275-1.279-0.209
				c-0.23,0.98-0.332,1.479-1.125,2.24c9.504,10.465-17.891-6.615-19.932-5.574c0.229-6.086-0.273-9.758-1.283-15.029
				c-0.828-4.33,0.57-11.951,1.91-16.23c1.758-5.618,6.545-8.054,7.479-13.81c0.98-6.018-5.633-15.43-3.768-21.207
				c3.58-0.971,3.678-7.546,5.533-10.104c2.986-4.118,8.689-5.724,12.744-8.542c8.266-5.746,15.334-11.322,24.658-15.307
				c0.723,1.084-0.375,0.831-0.434,1.297"/>
			<path fill="#FFF4EA" stroke="#010202" stroke-miterlimit="10" d="M305.371,647.9c-13.246,4.016-13.329-18.766-12.622-26.012
				c1.291-13.225-1.299-11.424-9.74-19.973c-5.696-5.771-8.271-10.583-8.182-18.352c0.086-7.459-0.827-16.814-0.416-24.304
				c0.455-8.302,5.155-15.271,3.937-24.418c-1.312-9.854-4.096-17.013-2.304-27.931c3.369-20.521-0.953-44.291,8.184-53.104
				c6.226-6.006,3.078-21.639,1.567-29.052c-0.099,0.391-6.973,6.57-7.385,6.534c-3.169-4.901-10.868-4.658-15.736-7.751
				c-9.645-6.13,0.909-11.109,2.079-21.014c8.886,0.634,17.801,12.853,25.963,11.757c21.222-2.85-0.334-7.253,16.496-15.267
				c8.802-4.19,15.408-1.993,23.759-6.613c9.223-5.103,12.165-7.326,23.591-5.633c10.465,1.55,12.836-0.028,22.901-4.986
				c10.968-5.404,18.632-4.467,29.832-0.156c11.714,4.508,15.681-3.17,27.91-2.242c12.162,0.924,8,13.279,15.398,15.775
				c6.646,2.242,11.48-7.122,11.023-12.067c-0.646-7-6.627-9.108-7.471-16.405c-1.123-9.701,5.752-11.958,8.949-18.811
				c3.85-8.246-1.615-12.36-1.299-18.956c0.404-8.398,9.27-11.093,12.295-18.187c2.646-6.195-0.32-11.269-0.395-18.059
				c-0.115-10.57,7.66-21.771,14.383-30.386c-9.037-9.221-8.125-15.729-2.057-23.481c11.541,0.111,16.336,7.791,16.922,19.051
				c9.938-4.115,7.865-7.109,17.43-5.207c4.756,0.946,11.68,2.597,16.234,4.19c4.637-6.657,16.982-22.125,27.65-17.64
				c0.357,0.1-1.844,1.545-1.695,1.265c-0.373,0.367,1.736-2.401,1.699-0.756c-0.443,1.064-0.025,0.344-0.922,0.253
				c1.869,9.234,1.254,19.447-3.217,26.847c13.617,3.479,26.879,18.282,12.107,29.215c10.064,6.379,13.045,10.495,12.334,21.802
				c-0.518,8.182,1.979,15.928,0.633,24.134c-0.875,5.351-2.191,8.311-0.584,13.23c1.418,4.341,2.26,6.707,1.682,11.178
				c-0.619,4.793-3.727,7.134-5.479,11.393c-1.623,3.935-0.613,9.542-0.016,13.78c0.795,5.61,2.449,9.604,1.146,15.259
				c-1.184,5.143-6.928,9.877-7.604,14.481c-0.758,5.177-2.107,0.953-4.678,6.792c-4.078,9.276-7.939,16.147-7.004,26.722
				c1.352,15.271-15.686,33.519-19.514,43.222c-2.439,6.171,4.322,15.23-0.354,20.224c-4.32,4.614-7.557,11.287-11.576,16.133
				c-1.645,1.984-3.85,4.007-6.385,5.944c-7.604,5.819-18.203,10.899-25.779,12.061c4.043,8.202-3.588,14.36,0.439,20.79
				c3.535,5.64-5.279,15.188-8.021,23.144c-3.145,9.123-0.793,11.928,0.557,18.916c0.234,1.207,0.438,2.539,0.576,4.051
				c0.664,7.15-4.717,13.789-3.346,21.225c-10.576,1.504-13.75,1.531-20.385,9.805c-0.324,0.416-0.305,0.434,0.057,0.053
				c1.088-14.17-7.311-15.854-15.75-22.852c-8.666-7.188-2.938-15.787-7.557-25.125c-2.643-5.346-5.363-5.842-6.869-12.471
				c-1.178-5.171-3.262-10.914-4.205-15.688c-1.938-9.818,3.807-14.638,6.592-24.277c-15.92,10.194-36.691,10.504-53.175,13.066
				c-3.522,0.547-5.987,3.292-10.513,3.258c-4.539-0.035-9.306-3.559-13.614-3.587c-12.388-0.083-4.398,8.964-9.043,17.591
				c-2.337,4.342-7.247,5.388-8.35,10.778c-0.92,4.496,3.619,8.931,3.263,12.785c-0.904,9.771-14.003,14.176-18.391,22.439
				c-4.48,8.438-1.368,11.203-12.227,15.631c-6.15,2.51-14.362,2.57-20.129,5.348c0.236,0.916,0.112-1.346,0.142-1.816"/>
			<path fill="#E9E5DC" d="M493.75,300.25c-0.387,0.536,8.371,4.238,15.25,3.25c8.668-1.245,18.209-0.122,11.75,0
				c-3.508,0.067,7.852-1.928,11.504-2.069c3.744-0.143,5.393-3.327,8.467-3.553c1.98-0.147,5.08,2.074,7.471,2.139
				c4.23,0.115,6.037-4.932,10.561-4.017c-7.967,7.757-5.871,15.755-3,25.75c2.725,9.493,6.754,22.388,6,32
				c-0.572,7.272-6.693,15.34-15.75,21.75c-15.553,11.008-43.006-5.742-43.5-23c-0.484-16.898,3.814-16.366-1.75-32.5
				c-1.563-4.517,0.332-13.574-2.455-16.563"/>
			<path fill="#AF9E9F" d="M550.104,350.713c1.041,11.751-7.723,13.758-17.898,14.658c-10.178,0.901-17.916,0.355-18.957-11.396
				c-1.039-11.753,6.367-22.009,16.545-22.91C539.971,330.164,549.064,338.96,550.104,350.713z"/>
			
				<ellipse transform="matrix(-0.9961 0.0882 -0.0882 -0.9961 1052.8916 592.7372)" fill="#FFFFFF" cx="513.35" cy="319.632" rx="7" ry="9.499"/>
			
				<ellipse transform="matrix(-0.9961 0.088 -0.088 -0.9961 1055.1558 595.6297)" fill="#010202" stroke="#010202" stroke-miterlimit="10" cx="514.444" cy="321.081" rx="3.081" ry="4.75"/>
			<path fill="none" stroke="#010202" stroke-miterlimit="10" d="M507.314,314.36"/>
			<path fill="#E9E5DC" stroke="#FFFFFF" d="M516.545,320.867c0.063,0.701-0.723,2.407-1.871,2.509
				c-1.146,0.102-2.219-1.44-2.281-2.141c-0.061-0.701,0.818-1.351,1.965-1.452C515.502,319.682,516.482,320.167,516.545,320.867z"
				/>
			
				<ellipse transform="matrix(0.9961 -0.0882 0.0882 0.9961 -25.9053 48.6979)" fill="#FFFFFF" cx="538.068" cy="317.47" rx="7" ry="9.499"/>
			
				<ellipse transform="matrix(0.9961 -0.0881 0.0881 0.9961 -26.0268 48.5862)" fill="#010202" stroke="#010202" stroke-miterlimit="10" cx="537.218" cy="319.043" rx="3.083" ry="4.75"/>
			<path fill="none" stroke="#010202" stroke-miterlimit="10" d="M543.082,311.194"/>
			<path fill="#E9E5DC" stroke="#FFFFFF" d="M535.141,319.222c0.063,0.701,1.133,2.243,2.279,2.141
				c1.145-0.101,1.932-1.808,1.869-2.508c-0.064-0.701-1.039-1.186-2.188-1.084C535.955,317.871,535.078,318.521,535.141,319.222z"
				/>
			<path fill="#131312" stroke="#010202" stroke-miterlimit="10" d="M537.783,345.952c0.053,0.595-2.646,5.922-5.811,6.202
				c-3.162,0.28-5.592-4.593-5.645-5.188c-0.057-0.595,2.469-1.306,5.633-1.585C535.123,345.1,537.73,345.357,537.783,345.952z"/>
			<path fill="#131312" stroke="#010202" stroke-miterlimit="10" d="M533.723,347.654"/>
			<path fill="none" stroke="#010202" stroke-miterlimit="10" d="M522.844,355.168c-0.193-2.2,2.418,4.938,12.432,3.392
				c3.684-0.569,9.932,2.525,9.604-1.184"/>
			
				<ellipse transform="matrix(-0.9961 0.0881 -0.0881 -0.9961 672.631 1275.0636)" fill="#010202" stroke="#010202" stroke-miterlimit="10" cx="308.178" cy="652.375" rx="19" ry="10.061"/>
			
				<ellipse transform="matrix(-0.9961 0.088 -0.088 -0.9961 1009.9715 1266.5027)" fill="#010202" stroke="#010202" stroke-miterlimit="10" cx="477.071" cy="655.512" rx="19" ry="10.06"/>
			<g>
				<g>
					<path fill="#010202" d="M508.502,632.893c-1.518-0.793-3.361-0.197-4.93,0.172c-3.76,0.885-7.225-0.707-10.883,0.1
						c-0.682,0.15-1.26,1.076-0.219,1.131c2.555,0.137,4.951,0.25,7.463,0.848c1.734,0.414,3.582-0.5,5.287,0.064
						c0.232-0.383,0.465-0.766,0.699-1.148c-2.092,0.365-5.211,0.346-7.252-0.172c-0.5-0.127-2.158,0.434-1.342,1.057
						c0.844,0.646,7.994,2.236,7.463,3.027c0.424-0.184,0.848-0.365,1.27-0.547c-1.428-0.145-2.406-1.455-3.688-1.98
						c-0.449,0.354-0.896,0.703-1.346,1.059c1.08,0.289,4.371,1.027,5.195,2.063c0.445,0.557,2.281-0.078,1.787-0.785
						c-0.85-1.217-1.375-2.266-2.906-2.533c-0.313,0.385-0.629,0.77-0.941,1.154c1.523,0.068,4.541,0.715,5.859-0.563
						c1.711-1.656-0.766-2.881-2.047-3.146c-0.465-0.098-2.254,0.686-1.344,1.057c1.498,0.611,3.848,1.67,3.537,3.633
						c-0.131,0.828,1.824,0.506,1.938-0.213c0.414-2.609-1.979-3.604-3.951-4.408c-0.445,0.352-0.895,0.705-1.344,1.057
						c0.188,0.492,0.367,0.982,0.551,1.477c-0.824-0.002-1.648-0.027-2.477-0.074c-0.549-0.025-2.063,0.959-0.943,1.156
						c1.172,0.207,1.693,1.352,2.281,2.191c0.596-0.262,1.191-0.521,1.787-0.785c-1.252-1.563-3.988-1.908-5.822-2.398
						c-0.504-0.135-2.223,0.693-1.342,1.057c1.582,0.65,2.707,2.004,4.486,2.182c0.447,0.043,1.014-0.168,1.27-0.547
						c0.094-0.141,0.189-0.279,0.281-0.418c0.104-0.152,0.08-0.297-0.012-0.439c-1.65-2.574-5.814-1.564-8.023-3.252
						c-0.447,0.352-0.895,0.703-1.342,1.057c2.641,0.67,5.477,0.691,8.176,0.221c0.484-0.086,1.73-0.811,0.699-1.148
						c-1.246-0.412-2.359-0.24-3.646-0.076c-1.766,0.229-2.643-0.389-4.195-0.568c-1.779-0.205-3.557-0.234-5.344-0.328
						c-0.07,0.377-0.145,0.754-0.219,1.131c2.232-0.492,4.953,0.584,7.273,0.414c1.549-0.113,5.404-1.463,6.727-0.771
						C507.592,634.201,509.352,633.336,508.502,632.893L508.502,632.893z"/>
				</g>
			</g>
			<g>
				<g>
					<path fill="#010202" d="M506.832,633.523c-0.68-0.912-2.154-0.773-2.785,0.131c-0.715,1.023,1.09,1.422,1.635,0.641
						c0.264-0.375-0.695-0.006-0.611,0.105C505.633,635.156,507.461,634.367,506.832,633.523L506.832,633.523z"/>
				</g>
			</g>
			<g>
				<g>
					<path fill="#010202" d="M510.061,635.611c0.402,0.283,0.516,0.92,0.566,1.373c0.076,0.691,1.902,0.262,1.934-0.367
						c0.023-0.473-0.146-0.838-0.416-1.221c-0.145-0.211-0.82-0.504-0.807-0.764c-0.576,0.201-1.154,0.396-1.73,0.6
						c0.393,0.23,0.736,0.527,1.043,0.861c0.381,0.414,0.418,1.039,0.617,1.545c0.258,0.654,1.623,0.287,1.871-0.215
						c0.635-1.283-0.918-2.023-1.986-1.939c-0.377,0.029-1,0.26-1.09,0.689c-0.094,0.453,0.566,0.488,0.85,0.469
						c-0.135-0.012-0.154-0.01-0.063,0.006c0.107,0.041,0.203,0.104,0.287,0.178c0.133,0.117,0.281,0.328,0.189,0.512
						c0.623-0.072,1.246-0.145,1.871-0.215c-0.229-0.584-0.305-1.201-0.686-1.719c-0.344-0.463-0.889-0.863-1.383-1.15
						c-0.42-0.244-1.697-0.025-1.73,0.6c-0.055,0.953,1.268,1.037,1.225,1.982c0.645-0.123,1.287-0.244,1.936-0.367
						c-0.082-0.73-0.361-1.406-0.973-1.838C511.025,634.236,509.254,635.043,510.061,635.611L510.061,635.611z"/>
				</g>
			</g>
			<g>
				<g>
					<path fill="#F9DCEB" d="M345.851,459.14c-0.277,6.65,4.93,9.337,10.896,9.705c7.396,0.456,12.862-2.781,18.25-7.353
						c5.534-4.696,12.521,2.636,17.97,4.104c2.906,0.783,6.518,0.2,9.419-0.209c3.797-0.537,12.866-2.316,11.547-7.922
						c-0.203-0.863-2.137-0.355-1.932,0.518c1.479,6.285-13.575,6.705-17.354,6.405c-3.786-0.301-6.946-3.294-10.322-4.794
						c-2.315-1.029-5.044-1-7.479-0.537c-1.878,0.358-3.419,1.82-4.761,3.065c-2.631,2.44-5.506,3.938-8.985,4.808
						c-6.347,1.587-15.64,0.294-15.296-7.951C347.846,457.998,345.886,458.304,345.851,459.14L345.851,459.14z"/>
				</g>
			</g>
			<g>
				<g>
					<path fill="#F9DCEB" d="M374.987,504.086c3.771,6.918,12.717,9.031,20.001,7.848c2.771-0.451,4.902-1.919,7.123-3.536
						c5.313-3.869,8.547,0.527,13.285,2.787c6.825,3.255,15.411,1.921,22.35-0.194c4.297-1.31,11.842-3.536,13.303-8.45
						c0.256-0.859-1.717-0.62-1.951,0.172c-1.512,5.087-11.617,7.199-16.051,8.217c-4.828,1.105-9.816,0.97-14.588-0.292
						c-3.344-0.884-5.586-3.435-8.659-4.793c-3.822-1.692-5.759-0.586-8.948,1.746c-7.335,5.364-19.432,4.208-24.088-4.332
						C376.375,502.549,374.521,503.232,374.987,504.086L374.987,504.086z"/>
				</g>
			</g>
			<g>
				<g>
					<path fill="#F9DCEB" d="M458.15,451.774c-1.504,5.989,3.336,11.214,8.945,12.184c2.732,0.472,5.801,0.163,8.424-0.688
						c4.857-1.579,7.789-3.466,12.992-1.254c5.848,2.485,11.658,6.257,18.242,4.081c5.66-1.872,11.352-5.733,14.375-10.976
						c0.232-0.408-1.609-0.255-1.92,0.285c-3.85,6.667-12.467,11.705-20.098,9.718c-4.873-1.271-8.926-4.567-13.926-5.498
						c-3.158-0.589-6.17,1.188-8.924,2.427c-7.225,3.247-18.518-1.299-16.193-10.563
						C460.221,450.895,458.295,451.197,458.15,451.774L458.15,451.774z"/>
				</g>
			</g>
			<g>
				<g>
					<path fill="#F9DCEB" d="M303.925,524.267c3.099,4.007,7.547,6.22,12.657,5.816c4.606-0.364,8.099-6.467,12.713-5.471
						c3.063,0.661,5.646,3.036,8.58,4.086c2.399,0.86,4.508,0.981,7.035,0.772c4.071-0.336,7.378-2.396,10.062-5.369
						c0.411-0.456-1.438-0.213-1.752,0.135c-5.842,6.474-12.342,4.607-18.705,1.207c-1.851-0.987-4.174-2.218-6.362-1.838
						c-2.094,0.364-3.729,1.162-5.446,2.419c-6.114,4.475-12.395,3.486-16.852-2.274
						C305.487,523.272,303.769,524.066,303.925,524.267L303.925,524.267z"/>
				</g>
			</g>
			<g>
				<g>
					<path fill="#F9DCEB" d="M397.915,421.724c4.919,1.841,8.454,6.387,13.924,6.841c4.582,0.381,7.558-3.74,9.414-7.294
						c-0.621,0.167-1.242,0.333-1.863,0.5c7.486,5.853,24.537,9.639,31.525,0.987c-0.596,0.132-1.191,0.264-1.785,0.396
						c5.092,4.387,17.078,7.414,20.422-0.636c0.154-0.369-1.697-0.18-1.908,0.329c-2.816,6.784-12.586,3.18-16.697-0.363
						c-0.359-0.312-1.521,0.073-1.783,0.396c-6.078,7.522-21.377,3.363-27.953-1.78c-0.396-0.311-1.645,0.078-1.861,0.5
						c-1.578,3.018-3.505,6.818-7.91,5.907c-1.899-0.394-3.66-1.618-5.269-2.653c-2.184-1.403-4.224-2.984-6.671-3.901
						C399.05,420.787,397.307,421.496,397.915,421.724L397.915,421.724z"/>
				</g>
			</g>
			<g>
				<g>
					<path fill="#F9DCEB" d="M481.223,500.776c8.227,2.961,17.689,6.3,25.541,0.696c1.066-0.761-0.59-1.03-1.203-0.592
						c-6.975,4.978-15.607,1.541-22.803-1.049C482.164,499.617,480.412,500.484,481.223,500.776L481.223,500.776z"/>
				</g>
			</g>
			<g>
				<g>
					<path fill="#F9DCEB" d="M320.579,419.199c3.182,0.558,5.759,2.966,8.818,3.949c3.86,1.24,8.021,1.324,12.049,1.369
						c3.093,0.034,6.375-0.33,9.292-1.401c1.896-0.697,7.407-2.393,7.601-4.688c0.067-0.822-1.44-0.319-1.744-0.053
						c-0.468,0.41-0.688,0.668-1.112,1.158c-0.563,0.653,1.389,0.537,1.805,0.057c0.286-0.292,0.574-0.584,0.862-0.875
						c-0.582-0.018-1.163-0.035-1.744-0.053c-0.214,2.558-8.361,4.162-10.134,4.457c-3.33,0.555-6.812,0.243-10.157-0.008
						c-5.521-0.414-9.22-4.083-14.357-4.983C321.125,418.017,319.472,419.005,320.579,419.199L320.579,419.199z"/>
				</g>
			</g>
			<g>
				<g>
					<path fill="#F9DCEB" d="M506.725,410.948c1.947,9.123,13.498,6.185,18.996,2.268c-0.551,0.098-1.102,0.195-1.652,0.292
						c3.348,3.948,11.029,4.687,15.752,3.55c-1.141,0.274-0.961,0.905,0.172,0.633c0.461-0.111,0.855-0.212,1.293-0.372
						c0.139-0.051,0.59-0.208,0.615-0.402c0.002-0.027,0.008-0.054,0.012-0.081c0.016-0.125-0.023-0.193-0.164-0.218
						c-5.484-0.99-11.67,1.165-15.861-3.778c-0.285-0.337-1.387,0.104-1.652,0.292c-5.146,3.67-13.928,5.019-15.574-2.704
						C508.563,409.988,506.621,410.461,506.725,410.948L506.725,410.948z"/>
				</g>
			</g>
			<g>
				<g>
					<path fill="#F9DCEB" d="M460.746,537.996c0.646,3.436,7.023,2.483,9.346,2.197c2.252-0.276,8.613-0.9,9.563-3.584
						c0.223-0.621-1.707-0.369-1.928,0.255c-0.582,1.645-6.002,2.11-7.355,2.308c-1.898,0.271-7.168,1.069-7.689-1.691
						C462.559,536.846,460.619,537.317,460.746,537.996L460.746,537.996z"/>
				</g>
			</g>
			<g>
				<g>
					<path fill="#F9DCEB" d="M448.211,578.811c-3.08-2.315-7.93-0.565-9.885-4.543c-0.287-0.587-2.158,0.057-1.932,0.518
						c2.1,4.272,6.791,2.319,10.01,4.739C446.898,579.896,448.643,579.136,448.211,578.811L448.211,578.811z"/>
				</g>
			</g>
			<g>
				<g>
					<path fill="#F9DCEB" d="M454.373,592.732c6.211-0.551,10.828-4.327,16.814-5.268c6.699-1.053,13.334-0.491,19.906-2.524
						c1.16-0.356,0.854-1.559-0.32-1.193c-6.813,2.105-13.805,1.552-20.76,2.646c-5.508,0.866-9.637,4.537-15.438,5.052
						C453.541,591.534,453.047,592.85,454.373,592.732L454.373,592.732z"/>
				</g>
			</g>
			<g>
				<g>
					<path fill="#F9DCEB" d="M296.081,584.235c4.875-13.106,26.069,8.38,32.519-6.894c-0.556,0.147-1.112,0.298-1.668,0.447
						c5.927,4.633,13.341,0.539,19.966,2.366c0.886,0.245,2.281-1.041,1.1-1.365c-6.329-1.747-14.089,2.136-19.589-2.162
						c-0.491-0.388-1.428-0.122-1.668,0.445c-5.873,13.911-26.803-8.479-32.519,6.896
						C293.819,585.046,295.759,585.099,296.081,584.235L296.081,584.235z"/>
				</g>
			</g>
			<g>
				<g>
					<path fill="#F9DCEB" d="M317.079,608.602c5.943,1.396,11.411,0.018,17.028-2.031c1.286-0.469,0.082-0.857-0.704-0.57
						c-4.88,1.779-9.572,3-14.757,1.783C318.149,607.666,316.434,608.451,317.079,608.602L317.079,608.602z"/>
				</g>
			</g>
			<g>
				<g>
					<path fill="#F9DCEB" d="M300.632,481.391c0.294,3.627,4.411,4.489,7.519,4.748c2.888,0.241,5.436-0.273,8.229-0.967
						c4.29-1.065,8.571,1.166,12.868,1.106c0.784-0.011,2.027-1.217,0.724-1.197c-4.145,0.056-7.952-1.942-12.072-1.375
						c-3.641,0.5-14.81,3.61-15.333-2.832C302.506,480.154,300.567,480.586,300.632,481.391L300.632,481.391z"/>
				</g>
			</g>
		</g>
	</g>
</g>
<g>
	<path fill="#E84B1A" d="M235.749,909.213c-0.022,0.383,0.043,0.712-0.033,1.089"/>
</g>
<g>
	<path fill="#E84B1A" d="M295.902,921.944c-0.017,0.237,0.029,0.441-0.024,0.675"/>
</g>
</svg>
