<?xml version="1.0" encoding="utf-8"?>
<!-- Generator: Adobe Illustrator 15.0.0, SVG Export Plug-In . SVG Version: 6.00 Build 0)  -->
<!DOCTYPE svg PUBLIC "-//W3C//DTD SVG 1.1//EN" "http://www.w3.org/Graphics/SVG/1.1/DTD/svg11.dtd">
<svg version="1.1" id="Ebene_1" xmlns="http://www.w3.org/2000/svg" xmlns:xlink="http://www.w3.org/1999/xlink" x="0px" y="0px"
	 width="841.89px" height="1190.55px" viewBox="0 0 841.89 1190.55" enable-background="new 0 0 841.89 1190.55"
	 xml:space="preserve">
<g>
	<g>
		<g>
			<path fill="#5A2B33" stroke="#5A0F23" stroke-width="7" stroke-miterlimit="10" d="M582.317,733.566
				c-10.026,21.412-4.621,47.91-4.621,72.66c0,14.459-0.445,28.445-1.827,42.559c-0.707,7.213-1.498,14.172-1.87,21.646
				c-0.211,4.238,0.887,19.498-1.801,22.459c-3.425,3.771-17.533,2.295-19.521-1.859c-2.232-4.668,3.932-19.787,4.687-25.07
				c2.61-18.252,0.943-37.332,3.745-55.461c2.415-15.641,1.8-30.369,1.8-46.518c0-6.965-2.114-17.85,0.696-24.152
				c3.439-7.715,10.641-5.092,18.71-7.156"/>
			<path fill="#5A2B33" stroke="#5A0F23" stroke-width="7" stroke-miterlimit="10" d="M281.91,726.711
				c-12.15,0-17.143-3.533-18.689,13.676c-1.418,15.779-2.664,31.361-5.338,47.172c-5.836,34.479-6.158,72.594-0.785,107.314
				c4.164,0.268,8.518,0.236,12.68,0c1.199-29.834,2.059-60.217,5.438-89.867C278.258,778.287,281.91,754.068,281.91,726.711"/>
			<g>
				<path fill="#5A2B33" d="M600.288,723.672c-18.469,3.447-40.217,0.895-59.814,0.895c-67.479,0-134.296-10.732-201.499-10.732
					c-23.779,0-47.863-0.67-71.365-1.789c-14.533-0.691-35.943-2.387-28.486,17.756c25.721,1.262,49.764-3.525,75.477,1.031
					c28.01,4.959,57.764,2.67,86.313,5.365c40.104,3.787,82.24,4.475,122.679,4.475c16.059,0,31.833,0.854,48.054,0.895
					c5.574,0.014,17.241,1.303,22.2-0.879c6.585-2.893,6.552-15.361,6.448-19.695"/>
				<g>
					<path fill="#5A0F23" d="M605.154,720.582c-0.094-4.508-7.095-4.518-7.001,0c0.057,2.762,0.101,5.631-0.393,8.357
						c-1.065,5.902-2.997,8.811-9.276,9.039c-5.172,0.188-10.313-0.299-15.479-0.322c-16.021-0.072-32.033-0.891-48.055-0.895
						c-32.043-0.01-64.118-0.379-96.106-2.406c-15.746-1-31.443-2.787-47.215-3.313c-15.723-0.525-31.498-0.424-47.182-1.787
						c-15.75-1.371-30.988-4.566-46.885-4.328c-15.699,0.236-31.365,1.648-47.078,0.965c1.125,0.855,2.25,1.713,3.375,2.568
						c-1.168-3.367-2.926-8.867,1.016-11.197c6.814-4.025,16.57-2.482,24.1-2.127c16.045,0.754,32.1,1.318,48.162,1.584
						c32.582,0.539,64.961,1.072,97.479,3.51c32.577,2.441,65.128,5.553,97.782,6.813c15.715,0.605,31.439,0.477,47.153,1.061
						c14.376,0.535,28.8,1.045,43.033-1.463c4.44-0.783,2.553-7.527-1.861-6.75c-14.759,2.602-29.873,1.602-44.764,1.082
						c-15.826-0.553-31.657-0.381-47.482-1.094c-16.327-0.734-32.633-1.855-48.926-3.119c-32.534-2.521-65.063-5.539-97.693-6.494
						c-31.629-0.926-63.236-0.701-94.859-2.227c-7.789-0.375-17.045-1.248-24.25,2.408c-7.914,4.018-8.273,12.275-5.637,19.875
						c0.533,1.535,1.73,2.498,3.375,2.568c13.225,0.576,26.396-0.363,39.607-0.785c8.123-0.258,16.295-0.383,24.4,0.346
						c7.555,0.68,14.977,2.232,22.512,3.068c15.635,1.734,31.352,1.881,47.059,2.297c31.781,0.844,63.407,4.457,95.218,5.299
						c31.974,0.846,63.988,0.998,95.969,1.467c6.359,0.092,12.729,0.432,19.085,0.459c4.088,0.018,9.96,0.352,13.494-2.191
						C604.744,737.871,605.316,728.428,605.154,720.582L605.154,720.582z"/>
				</g>
			</g>
		</g>
	</g>
</g>
<g>
	<g>
		<g>
			
				<ellipse transform="matrix(-0.088 0.9961 -0.9961 -0.088 1071.9277 421.0493)" fill="#010202" stroke="#010202" stroke-miterlimit="10" cx="343.226" cy="701.207" rx="10.061" ry="19.001"/>
			
				<ellipse transform="matrix(-0.0881 0.9961 -0.9961 -0.0881 1248.9677 265.0536)" fill="#010202" stroke="#010202" stroke-miterlimit="10" cx="503.161" cy="704.218" rx="10.06" ry="18.999"/>
			<path fill="#AF9E9F" stroke="#010202" stroke-miterlimit="10" d="M462.48,634.074c-2.842-1.68-1.903-7.613,0.423-11.225
				c3.726,0.023,5.78-2.271,9.505-2.621c3.38-0.318,6.879,0.727,9.859,2.01c7.146,3.076,12.889,8.727,17.469,14.18
				c10.11,12.033,10.938,28.779,17.676,42.658c2.316,4.771,6.828,12.789,2.476,16.982c-2.819,2.717-9.824,2.105-13.557,2.131
				c-6.728,0.049-11.797,0.967-17.188-2.207c-4.414-2.598-6.636-6-10.346-9.781c-6.691-6.816-6.63-14.545-10.094-24.135
				c-1.918-5.309-5.197-14.035-4.938-19.846c0.136-3.098-2.46-2.457-2.187-5.547c0.083-0.941,0.585-6.611,0.353-3.984"/>
			<path fill="#AF9E9F" stroke="#010202" stroke-miterlimit="10" d="M306.555,589.842c-0.059-0.466-1.156-0.213-0.434-1.297
				c9.324,3.984,16.393,9.56,24.658,15.306c4.055,2.818,9.758,4.424,12.744,8.543c1.855,2.559,1.953,9.133,5.533,10.104
				c1.865,5.777-4.748,15.189-3.768,21.207c0.934,5.756,5.721,8.193,7.479,13.811c1.34,4.279,2.738,11.9,1.91,16.23
				c-1.01,5.271-1.512,8.943-1.283,15.029c-2.041-1.041-29.436,16.039-19.932,5.574c-0.793-0.762-0.895-1.26-1.125-2.24
				c-0.219-0.066-0.793,0.859-1.279,0.209c-1.113-9.461-7.438-16.445-11.342-24.33c-4.471-9.027-2.924-17.512-5.283-27.285
				c-11.75-48.67-4.346-53.389-5.83-51.349"/>
			<path fill="#FFF4EA" stroke="#010202" stroke-miterlimit="10" d="M539.698,704.443c0.029,0.471-0.095,2.732,0.142,1.816
				c-5.767-2.777-13.979-2.838-20.129-5.348c-10.858-4.428-7.746-7.193-12.227-15.631c-4.388-8.264-17.486-12.668-18.391-22.439
				c-0.356-3.854,4.183-8.289,3.263-12.785c-1.103-5.391-6.013-6.436-8.35-10.777c-4.645-8.627,3.345-17.674-9.043-17.592
				c-4.309,0.029-9.075,3.553-13.614,3.588c-4.525,0.033-6.99-2.711-10.513-3.258c-16.484-2.563-37.255-2.873-53.175-13.066
				c2.785,9.639,8.529,14.459,6.592,24.277c-0.943,4.773-3.027,10.516-4.205,15.688c-1.506,6.629-4.227,7.125-6.869,12.471
				c-4.619,9.338,1.109,17.938-7.557,25.125c-8.439,6.998-16.838,8.682-15.75,22.852c0.361,0.381,0.381,0.363,0.057-0.053
				c-6.635-8.273-9.809-8.301-20.385-9.805c1.371-7.436-4.01-14.074-3.346-21.225c0.139-1.512,0.342-2.844,0.576-4.051
				c1.35-6.988,3.701-9.793,0.557-18.916c-2.742-7.957-11.557-17.504-8.021-23.145c4.027-6.43-3.604-12.588,0.439-20.789
				c-7.576-1.162-18.176-6.242-25.779-12.061c-2.535-1.938-4.74-3.96-6.385-5.945c-4.02-4.846-7.256-11.519-11.576-16.133
				c-4.676-4.993,2.086-14.053-0.354-20.224c-3.828-9.703-20.865-27.95-19.514-43.222c0.936-10.575-2.926-17.446-7.004-26.722
				c-2.57-5.839-3.92-1.615-4.678-6.792c-0.676-4.604-6.42-9.338-7.604-14.481c-1.303-5.655,0.352-9.649,1.146-15.259
				c0.598-4.238,1.607-9.845-0.016-13.78c-1.752-4.259-4.859-6.6-5.479-11.393c-0.578-4.471,0.264-6.837,1.682-11.178
				c1.607-4.919,0.291-7.879-0.584-13.23c-1.346-8.206,1.15-15.952,0.633-24.134c-0.711-11.307,2.27-15.423,12.334-21.802
				c-14.771-10.933-1.51-25.736,12.107-29.215c-4.471-7.4-5.086-17.613-3.217-26.847c-0.896,0.091-0.479,0.811-0.922-0.253
				c-0.037-1.645,2.072,1.123,1.699,0.756c0.148,0.28-2.053-1.165-1.695-1.265c10.668-4.485,23.014,10.983,27.65,17.64
				c4.555-1.593,11.479-3.244,16.234-4.19c9.564-1.902,7.492,1.092,17.43,5.207c0.586-11.26,5.381-18.94,16.922-19.051
				c6.068,7.752,6.98,14.26-2.057,23.481c6.723,8.616,14.498,19.816,14.383,30.386c-0.074,6.79-3.041,11.864-0.395,18.059
				c3.025,7.094,11.891,9.789,12.295,18.187c0.316,6.596-5.148,10.71-1.299,18.956c3.197,6.853,10.072,9.11,8.949,18.811
				c-0.844,7.297-6.824,9.405-7.471,16.405c-0.457,4.945,4.377,14.309,11.023,12.067c7.398-2.496,3.236-14.851,15.398-15.775
				c12.229-0.928,16.195,6.75,27.909,2.242c11.2-4.311,18.864-5.248,29.832,0.156c10.065,4.958,12.437,6.536,22.901,4.986
				c11.426-1.693,14.368,0.53,23.591,5.633c8.351,4.62,14.957,2.423,23.759,6.613c16.83,8.014-4.726,12.417,16.496,15.267
				c8.162,1.096,17.077-11.123,25.963-11.757c1.171,9.905,11.725,14.884,2.079,21.014c-4.867,3.093-12.566,2.85-15.735,7.751
				c-0.412,0.036-7.286-6.143-7.386-6.534c-1.511,7.413-4.658,23.046,1.567,29.052c9.137,8.813,4.815,32.583,8.184,53.104
				c1.792,10.918-0.991,18.076-2.304,27.931c-1.218,9.146,3.482,16.117,3.938,24.417c0.411,7.49-0.502,16.846-0.416,24.305
				c0.089,7.77-2.486,12.58-8.183,18.352c-8.44,8.549-11.03,6.748-9.739,19.973c0.707,7.246,0.624,30.027-12.622,26.012"/>
			<path fill="#E9E5DC" d="M340.52,362.437c-2.787,2.989-0.893,12.046-2.455,16.563c-5.564,16.134-1.266,15.602-1.75,32.5
				c-0.494,17.258-27.947,34.008-43.5,23c-9.057-6.41-15.178-14.478-15.75-21.75c-0.754-9.612,3.275-22.507,6-32
				c2.871-9.995,4.967-17.993-3-25.75c4.523-0.915,6.33,4.132,10.561,4.017c2.391-0.065,5.49-2.286,7.471-2.139
				c3.074,0.226,4.723,3.41,8.467,3.553c3.652,0.141,15.012,2.136,11.504,2.069c-6.459-0.122,3.082-1.245,11.75,0
				c6.879,0.988,15.637-2.714,15.25-3.25"/>
			<path fill="#AF9E9F" d="M309.023,390.065c10.178,0.901,17.584,11.157,16.545,22.91c-1.041,11.751-8.779,12.297-18.957,11.396
				c-10.176-0.9-18.939-2.907-17.898-14.658C289.752,397.96,298.846,389.164,309.023,390.065z"/>
			
				<ellipse transform="matrix(-0.0882 0.9961 -0.9961 -0.0882 731.3309 87.8312)" fill="#FFFFFF" cx="325.467" cy="378.632" rx="9.499" ry="7"/>
			
				<ellipse transform="matrix(-0.088 0.9961 -0.9961 -0.088 731.5206 90.4132)" fill="#010202" stroke="#010202" stroke-miterlimit="10" cx="324.371" cy="380.081" rx="4.75" ry="3.08"/>
			<path fill="none" stroke="#010202" stroke-miterlimit="10" d="M331.502,373.36"/>
			<path fill="#E9E5DC" stroke="#FFFFFF" d="M324.459,378.783c1.146,0.101,2.025,0.751,1.965,1.452
				c-0.063,0.701-1.135,2.243-2.281,2.141c-1.148-0.102-1.934-1.808-1.871-2.509C322.334,379.167,323.314,378.682,324.459,378.783z"
				/>
			
				<ellipse transform="matrix(0.0882 -0.9961 0.9961 0.0882 -100.7825 642.8386)" fill="#FFFFFF" cx="300.748" cy="376.47" rx="9.499" ry="7"/>
			
				<ellipse transform="matrix(0.0882 -0.9961 0.9961 0.0882 -101.571 645.1249)" fill="#010202" stroke="#010202" stroke-miterlimit="10" cx="301.599" cy="378.043" rx="4.75" ry="3.083"/>
			<path fill="none" stroke="#010202" stroke-miterlimit="10" d="M295.734,370.194"/>
			<path fill="#E9E5DC" stroke="#FFFFFF" d="M301.715,376.771c-1.148-0.102-2.123,0.383-2.188,1.084
				c-0.063,0.7,0.725,2.407,1.869,2.508c1.146,0.102,2.217-1.44,2.279-2.141S302.861,376.871,301.715,376.771z"/>
			<path fill="#131312" stroke="#010202" stroke-miterlimit="10" d="M306.855,404.381c3.164,0.279,5.689,0.99,5.633,1.585
				c-0.053,0.595-2.482,5.468-5.645,5.188c-3.164-0.28-5.863-5.606-5.811-6.202S303.693,404.1,306.855,404.381z"/>
			<path fill="#131312" stroke="#010202" stroke-miterlimit="10" d="M305.094,406.654"/>
			<path fill="none" stroke="#010202" stroke-miterlimit="10" d="M293.938,416.376c-0.328,3.709,5.92,0.615,9.604,1.184
				c10.014,1.546,12.625-5.592,12.432-3.392"/>
			
				<ellipse transform="matrix(-0.0881 0.9961 -0.9961 -0.0881 1285.9932 245.4705)" fill="#010202" stroke="#010202" stroke-miterlimit="10" cx="530.637" cy="711.374" rx="10.06" ry="18.999"/>
			
				<ellipse transform="matrix(-0.0879 0.9961 -0.9961 -0.0879 1105.3008 417.0068)" fill="#010202" stroke="#010202" stroke-miterlimit="10" cx="361.744" cy="714.512" rx="10.06" ry="18.999"/>
			<g>
				<g>
					<path fill="#010202" d="M330.314,691.893c-0.85,0.443,0.91,1.309,1.527,1.002c1.322-0.691,5.178,0.658,6.727,0.771
						c2.32,0.17,5.041-0.906,7.273-0.414c-0.074-0.377-0.148-0.754-0.219-1.131c-1.787,0.094-3.564,0.123-5.344,0.328
						c-1.553,0.18-2.43,0.797-4.195,0.568c-1.287-0.164-2.4-0.336-3.646,0.076c-1.031,0.338,0.215,1.063,0.699,1.148
						c2.699,0.471,5.535,0.449,8.176-0.221c-0.447-0.354-0.895-0.705-1.342-1.057c-2.209,1.688-6.373,0.678-8.023,3.252
						c-0.092,0.143-0.115,0.287-0.012,0.439c0.092,0.139,0.188,0.277,0.281,0.418c0.256,0.379,0.822,0.59,1.27,0.547
						c1.779-0.178,2.904-1.531,4.486-2.182c0.881-0.363-0.838-1.191-1.342-1.057c-1.834,0.49-4.57,0.836-5.822,2.398
						c0.596,0.264,1.191,0.523,1.787,0.785c0.588-0.84,1.109-1.984,2.281-2.191c1.119-0.197-0.395-1.182-0.943-1.156
						c-0.828,0.047-1.652,0.072-2.477,0.074c0.184-0.494,0.363-0.984,0.551-1.477c-0.449-0.352-0.898-0.705-1.344-1.057
						c-1.973,0.805-4.365,1.799-3.951,4.408c0.113,0.719,2.068,1.041,1.938,0.213c-0.311-1.963,2.039-3.021,3.537-3.633
						c0.91-0.371-0.879-1.154-1.344-1.057c-1.281,0.266-3.758,1.49-2.047,3.146c1.318,1.277,4.336,0.631,5.859,0.563
						c-0.313-0.385-0.629-0.77-0.941-1.154c-1.531,0.268-2.057,1.316-2.906,2.533c-0.494,0.707,1.342,1.342,1.787,0.785
						c0.824-1.035,4.115-1.773,5.195-2.063c-0.449-0.355-0.896-0.705-1.346-1.059c-1.281,0.525-2.26,1.836-3.688,1.98
						c0.422,0.182,0.846,0.363,1.27,0.547c-0.531-0.791,6.619-2.381,7.463-3.027c0.816-0.623-0.842-1.184-1.342-1.057
						c-2.041,0.518-5.16,0.537-7.252,0.172c0.234,0.383,0.467,0.766,0.699,1.148c1.705-0.564,3.553,0.35,5.287-0.064
						c2.512-0.598,4.908-0.711,7.463-0.848c1.041-0.055,0.463-0.98-0.219-1.131c-3.658-0.807-7.123,0.785-10.883-0.1
						C333.676,691.695,331.832,691.1,330.314,691.893L330.314,691.893z"/>
				</g>
			</g>
			<g>
				<g>
					<path fill="#010202" d="M331.984,692.523c-0.629,0.844,1.199,1.633,1.762,0.877c0.084-0.111-0.875-0.48-0.611-0.105
						c0.545,0.781,2.35,0.383,1.635-0.641C334.139,691.75,332.664,691.611,331.984,692.523L331.984,692.523z"/>
				</g>
			</g>
			<g>
				<g>
					<path fill="#010202" d="M328.756,694.611c0.807-0.568-0.965-1.375-1.525-0.98c-0.611,0.432-0.891,1.107-0.973,1.838
						c0.648,0.123,1.291,0.244,1.936,0.367c-0.043-0.945,1.279-1.029,1.225-1.982c-0.033-0.625-1.311-0.844-1.73-0.6
						c-0.494,0.287-1.039,0.688-1.383,1.15c-0.381,0.518-0.457,1.135-0.686,1.719c0.625,0.07,1.248,0.143,1.871,0.215
						c-0.092-0.184,0.057-0.395,0.189-0.512c0.084-0.074,0.18-0.137,0.287-0.178c0.092-0.016,0.072-0.018-0.063-0.006
						c0.283,0.02,0.943-0.016,0.85-0.469c-0.09-0.43-0.713-0.66-1.09-0.689c-1.068-0.084-2.621,0.656-1.986,1.939
						c0.248,0.502,1.613,0.869,1.871,0.215c0.199-0.506,0.236-1.131,0.617-1.545c0.307-0.334,0.65-0.631,1.043-0.861
						c-0.576-0.203-1.154-0.398-1.73-0.6c0.014,0.26-0.662,0.553-0.807,0.764c-0.27,0.383-0.439,0.748-0.416,1.221
						c0.031,0.629,1.857,1.059,1.934,0.367C328.24,695.531,328.354,694.895,328.756,694.611L328.756,694.611z"/>
				</g>
			</g>
			<g>
				<g>
					<path fill="#F9DCEB" d="M492.965,518.14c-0.035-0.836-1.995-1.143-1.953-0.161c0.344,8.245-8.949,9.538-15.296,7.951
						c-3.479-0.87-6.354-2.367-8.985-4.808c-1.342-1.245-2.883-2.707-4.761-3.065c-2.435-0.463-5.163-0.492-7.479,0.537
						c-3.376,1.5-6.536,4.493-10.322,4.794c-3.779,0.3-18.833-0.12-17.354-6.405c0.205-0.873-1.729-1.381-1.932-0.518
						c-1.319,5.605,7.75,7.385,11.547,7.922c2.901,0.409,6.513,0.992,9.419,0.209c5.448-1.468,12.436-8.8,17.97-4.104
						c5.388,4.571,10.854,7.809,18.25,7.353C488.035,527.477,493.242,524.791,492.965,518.14L492.965,518.14z"/>
				</g>
			</g>
			<g>
				<g>
					<path fill="#F9DCEB" d="M463.829,563.086c0.466-0.854-1.389-1.537-1.776-0.828c-4.656,8.54-16.753,9.696-24.088,4.332
						c-3.189-2.332-5.126-3.438-8.948-1.746c-3.073,1.358-5.315,3.909-8.659,4.793c-4.772,1.262-9.76,1.397-14.588,0.292
						c-4.434-1.018-14.539-3.13-16.051-8.217c-0.234-0.792-2.207-1.031-1.951-0.172c1.461,4.914,9.006,7.141,13.303,8.45
						c6.939,2.115,15.525,3.449,22.35,0.194c4.738-2.26,7.972-6.656,13.285-2.787c2.221,1.617,4.352,3.085,7.123,3.536
						C451.112,572.118,460.058,570.004,463.829,563.086L463.829,563.086z"/>
				</g>
			</g>
			<g>
				<g>
					<path fill="#F9DCEB" d="M380.666,510.774c-0.145-0.577-2.07-0.879-1.918-0.284c2.324,9.264-8.969,13.81-16.193,10.563
						c-2.754-1.239-5.766-3.016-8.924-2.427c-5,0.931-9.053,4.227-13.926,5.498c-7.631,1.987-16.248-3.051-20.098-9.718
						c-0.311-0.54-2.152-0.693-1.92-0.285c3.023,5.242,8.715,9.104,14.375,10.976c6.584,2.176,12.395-1.596,18.242-4.081
						c5.203-2.212,8.135-0.325,12.992,1.254c2.623,0.852,5.691,1.16,8.424,0.688C377.33,521.988,382.17,516.763,380.666,510.774
						L380.666,510.774z"/>
				</g>
			</g>
			<g>
				<g>
					<path fill="#F9DCEB" d="M534.891,583.267c0.156-0.201-1.562-0.995-1.93-0.517c-4.457,5.761-10.737,6.749-16.852,2.274
						c-1.718-1.257-3.353-2.055-5.446-2.419c-2.188-0.38-4.512,0.851-6.362,1.838c-6.363,3.4-12.863,5.267-18.705-1.207
						c-0.314-0.348-2.163-0.591-1.752-0.135c2.684,2.973,5.99,5.033,10.062,5.369c2.527,0.209,4.636,0.088,7.035-0.772
						c2.934-1.05,5.518-3.425,8.58-4.086c4.614-0.996,8.106,5.106,12.713,5.471C527.344,589.487,531.792,587.274,534.891,583.267
						L534.891,583.267z"/>
				</g>
			</g>
			<g>
				<g>
					<path fill="#F9DCEB" d="M440.901,480.724c0.607-0.228-1.136-0.937-1.584-0.771c-2.447,0.917-4.487,2.498-6.671,3.901
						c-1.608,1.035-3.369,2.259-5.269,2.653c-4.404,0.911-6.332-2.889-7.909-5.907c-0.217-0.422-1.465-0.811-1.861-0.5
						c-6.576,5.143-21.875,9.303-27.953,1.78c-0.262-0.323-1.424-0.708-1.783-0.396c-4.111,3.543-13.881,7.147-16.697,0.363
						c-0.211-0.509-2.063-0.698-1.908-0.329c3.344,8.05,15.33,5.023,20.422,0.636c-0.594-0.132-1.189-0.264-1.785-0.396
						c6.988,8.652,24.039,4.866,31.525-0.987c-0.621-0.167-1.242-0.333-1.863-0.5c1.855,3.554,4.831,7.675,9.413,7.294
						C432.447,487.111,435.982,482.565,440.901,480.724L440.901,480.724z"/>
				</g>
			</g>
			<g>
				<g>
					<path fill="#F9DCEB" d="M357.594,559.776c0.811-0.292-0.941-1.159-1.535-0.944c-7.195,2.59-15.828,6.026-22.803,1.049
						c-0.613-0.438-2.27-0.169-1.203,0.592C339.904,566.076,349.367,562.737,357.594,559.776L357.594,559.776z"/>
				</g>
			</g>
			<g>
				<g>
					<path fill="#F9DCEB" d="M518.237,478.199c1.106-0.194-0.547-1.182-1.178-1.071c-5.138,0.9-8.836,4.569-14.357,4.983
						c-3.346,0.251-6.827,0.563-10.157,0.008c-1.772-0.295-9.92-1.899-10.134-4.457c-0.581,0.018-1.162,0.035-1.744,0.053
						c0.288,0.291,0.576,0.583,0.862,0.875c0.416,0.479,2.368,0.596,1.805-0.057c-0.424-0.49-0.645-0.748-1.112-1.158
						c-0.304-0.266-1.812-0.769-1.744,0.053c0.193,2.295,5.704,3.991,7.601,4.688c2.917,1.071,6.199,1.435,9.292,1.401
						c4.027-0.045,8.188-0.129,12.049-1.369C512.479,481.165,515.056,478.757,518.237,478.199L518.237,478.199z"/>
				</g>
			</g>
			<g>
				<g>
					<path fill="#F9DCEB" d="M332.092,469.948c0.104-0.487-1.838-0.96-1.936-0.52c-1.646,7.723-10.428,6.374-15.574,2.704
						c-0.266-0.188-1.367-0.629-1.652-0.292c-4.191,4.943-10.377,2.788-15.861,3.778c-0.141,0.025-0.18,0.093-0.164,0.218
						c0.004,0.027,0.01,0.054,0.012,0.081c0.025,0.194,0.477,0.351,0.615,0.402c0.438,0.16,0.832,0.261,1.293,0.372
						c1.133,0.272,1.313-0.359,0.172-0.633c4.723,1.137,12.404,0.398,15.752-3.55c-0.551-0.097-1.102-0.194-1.652-0.292
						C318.594,476.133,330.145,479.071,332.092,469.948L332.092,469.948z"/>
				</g>
			</g>
			<g>
				<g>
					<path fill="#F9DCEB" d="M378.07,596.996c0.127-0.68-1.813-1.15-1.936-0.516c-0.521,2.76-5.791,1.963-7.689,1.691
						c-1.354-0.197-6.773-0.664-7.355-2.308c-0.221-0.624-2.15-0.876-1.928-0.255c0.949,2.684,7.311,3.307,9.563,3.584
						C371.047,599.479,377.424,600.432,378.07,596.996L378.07,596.996z"/>
				</g>
			</g>
			<g>
				<g>
					<path fill="#F9DCEB" d="M390.605,637.811c-0.432,0.326,1.313,1.086,1.807,0.715c3.219-2.42,7.91-0.467,10.01-4.74
						c0.227-0.461-1.645-1.104-1.932-0.518C398.535,637.246,393.686,635.496,390.605,637.811L390.605,637.811z"/>
				</g>
			</g>
			<g>
				<g>
					<path fill="#F9DCEB" d="M384.443,651.732c1.326,0.117,0.832-1.199-0.203-1.289c-5.801-0.514-9.93-4.186-15.438-5.051
						c-6.955-1.094-13.947-0.541-20.76-2.646c-1.174-0.365-1.48,0.838-0.32,1.193c6.572,2.033,13.207,1.473,19.906,2.525
						C373.615,647.404,378.232,651.182,384.443,651.732L384.443,651.732z"/>
				</g>
			</g>
			<g>
				<g>
					<path fill="#F9DCEB" d="M542.735,643.234c0.321,0.865,2.262,0.813,1.859-0.266c-5.716-15.375-26.646,7.016-32.519-6.896
						c-0.24-0.566-1.177-0.832-1.668-0.445c-5.5,4.299-13.26,0.416-19.589,2.162c-1.182,0.324,0.214,1.611,1.1,1.365
						c6.625-1.826,14.039,2.268,19.966-2.365c-0.556-0.15-1.112-0.301-1.668-0.447C516.666,651.615,537.86,630.129,542.735,643.234
						L542.735,643.234z"/>
				</g>
			</g>
			<g>
				<g>
					<path fill="#F9DCEB" d="M521.737,667.602c0.645-0.15-1.07-0.936-1.567-0.818c-5.185,1.217-9.877-0.004-14.757-1.783
						c-0.786-0.287-1.99,0.102-0.704,0.57C510.326,667.619,515.794,668.998,521.737,667.602L521.737,667.602z"/>
				</g>
			</g>
			<g>
				<g>
					<path fill="#F9DCEB" d="M538.184,540.391c0.065-0.805-1.874-1.237-1.934-0.517c-0.523,6.442-11.692,3.332-15.333,2.832
						c-4.12-0.567-7.928,1.431-12.072,1.375c-1.304-0.02-0.061,1.187,0.724,1.197c4.297,0.06,8.578-2.172,12.868-1.106
						c2.793,0.693,5.341,1.208,8.229,0.967C533.772,544.88,537.89,544.018,538.184,540.391L538.184,540.391z"/>
				</g>
			</g>
		</g>
	</g>
</g>
</svg>
