<?xml version="1.0" encoding="utf-8"?>
<!-- Generator: Adobe Illustrator 15.0.0, SVG Export Plug-In . SVG Version: 6.00 Build 0)  -->
<!DOCTYPE svg PUBLIC "-//W3C//DTD SVG 1.1//EN" "http://www.w3.org/Graphics/SVG/1.1/DTD/svg11.dtd">
<svg version="1.1" id="Ebene_1" xmlns="http://www.w3.org/2000/svg" xmlns:xlink="http://www.w3.org/1999/xlink" x="0px" y="0px"
	 width="841.89px" height="1190.55px" viewBox="0 0 841.89 1190.55" enable-background="new 0 0 841.89 1190.55"
	 xml:space="preserve">
<g>
	<path fill="#F7A424" stroke="#FFE244" stroke-width="10" d="M624.604,538.956c-1.618,7.525-1.521,14.783,1.201,22.227
		c2.889,7.899,8.897,15.054,12.308,22.889c6.291,14.455,26.984,30.511,18.987,46.741c-3,6.089-6.13,11.511-13.586,15.441
		c-7.106,3.745-14.703,6.086-22.909,8.074c-19.021,4.608-45.42,3.655-63.382-2.899c-20.858-7.61-19.678-23.922-12.674-37.646
		c3.523-6.904,9.338-13.187,11.196-20.507c1.898-7.477,5.922-15.864,5.822-23.429c12.213,0.762,11.224,12.803,12.848,18.885
		c3.969-11.554-0.504-23.774,2.938-35.172c1.598-5.292,4.178-9.141,4.841-14.573c0.499-4.091,1.892-8.48,1.157-12.602
		c-0.756-4.238-2.771-8.485-3.702-12.718c4.487,3.881,9.962,6.16,13.327,10.778c3.904,5.355,6.305,12.053,6.711,18.137
		c0.426,6.384-0.489,12.529-0.386,18.885c0.104,6.41,4.195,11.034,9.093,15.962c0.396-3.98-0.22-8.071,0.453-12.045
		c0.752-4.438,2.42-8.755,3.307-13.127c0.743-3.66,1.579-6.169,5.393-8.675c2.047-1.347,5.577-2.952,6.227-4.625"/>
	<path fill="#E9501E" stroke="#EE7532" stroke-width="7" d="M565.363,617.419c2.357-1.347,9.233-1.081,11.637,0.581
		c4.162,2.88-3.638,7.279-7.042,10.331c-11.199,10.035,3.549,15.022,36.604,16.316c13.604,0.533,14.146-11.505,10.167-18.25
		c-2.472-4.188-10.07-12.938-0.897-16.08c-9.145-0.295-9.001,8.145-11.809,12.176c-5.137-5.727-0.736-6.794-0.444-13.044
		c0.35-7.476-6.307-12.677-17.066-13.011c5.635,4.41,8.099,12.037,5.441,17.889c-1.654,3.645-1.74-3.371-1.658,1.824
		C589.178,610.776,569.411,610.608,565.363,617.419"/>
</g>
<path fill="#F7A526" stroke="#FFE245" stroke-width="10" d="M260.022,512.526c-6.432-0.482-15.075,13.025-14.957,19.061
	c0.191,9.696,13.135,9.465,18.212,16.41c11.43,15.635,14.693,34.834,9.466,52.967c9.094-6.609,18.158-13.68,30.922-12.801
	c-5.448,5.338-5.021,16.951-5.769,23.809c-1.04,9.533,1.439,18.684,1.967,27.976c0.932,16.428-4.968,18.702-23.309,25.021
	c-17.669,6.086-55.407,5.505-68.232-7.824c-14.673-15.25-5.4-19.312-18.021-36.018c-2.995-3.965-7.059-7.162-11.589-9.566
	c10.505-0.166,19.214,7.362,28.152,11.22c6.093-11.54-4.902-32.41-10.601-43.2c12.051-0.868,18.669,8.859,26.751,14.684
	c0.274-7.842-7.244-18.127-10.023-25.775c-3.417-9.395-3.633-18.887-0.786-28.39C217.072,523.858,240.252,512.028,260.022,512.526"
	/>
<path fill="#E9531E" stroke="#EC651E" stroke-width="7" d="M282.495,614.337c-0.091-1.235,1.195,8.273-11.942,7.791
	c-6.854-0.253-12.304-3.736-11.553-10.128c0.836-7.115-2.639-13.347-2.639-20.11c0-7.641,4.146-12.66,7.581-19.562
	c-6.474-0.144-14.817,7.168-19.321,11.141c-6.695,5.903-11.276,13.992-14.313,22.19c-5.166,13.945-7.254,37.625,6.911,47.23
	c11.039,7.488,28.084,3.933,38.092-3.516c6.711-4.994,11.462-12.066,11.464-19.91c0.001-5.776-4.126-9.791-3.791-15.369"/>
<path fill="#F7A526" stroke="#FFE245" stroke-width="10" d="M313.162,589.854c-4.573-0.299-10.72,8.066-10.635,11.804
	c0.136,6.006,9.34,5.863,12.949,10.164c8.127,9.684,10.448,21.573,6.73,32.803c6.467-4.093,12.912-8.472,21.988-7.926
	c-3.874,3.304-3.57,10.497-4.102,14.744c-0.739,5.904,1.023,11.57,1.398,17.326c0.662,10.174-3.533,11.582-16.574,15.496
	c-12.563,3.769-39.399,3.408-48.52-4.847c-10.433-9.444-3.839-11.96-12.813-22.306c-2.131-2.456-5.02-4.437-8.24-5.925
	c7.47-0.103,13.662,4.56,20.018,6.948c4.333-7.146-3.485-20.072-7.537-26.755c8.569-0.538,13.274,5.487,19.021,9.094
	c0.195-4.856-5.15-11.226-7.128-15.963c-2.429-5.817-2.583-11.696-0.559-17.582C282.621,596.873,299.104,589.547,313.162,589.854"/>
<path fill="#E9531E" stroke="#EC651E" stroke-width="7" d="M329.142,652.908c-0.063-0.766,0.851,5.124-8.491,4.824
	c-4.874-0.156-8.749-2.313-8.215-6.271c0.594-4.407-1.877-8.267-1.877-12.455c0-4.731,2.947-7.842,5.392-12.115
	c-4.604-0.088-10.537,4.439-13.739,6.9c-4.761,3.655-8.018,8.665-10.178,13.742c-3.674,8.638-5.158,23.302,4.914,29.252
	c7.851,4.637,19.97,2.436,27.087-2.178c4.771-3.093,8.15-7.475,8.151-12.33c0-3.578-2.934-6.064-2.696-9.52"/>
</svg>
