<?xml version="1.0" encoding="utf-8"?>
<!-- Generator: Adobe Illustrator 15.0.0, SVG Export Plug-In . SVG Version: 6.00 Build 0)  -->
<!DOCTYPE svg PUBLIC "-//W3C//DTD SVG 1.1//EN" "http://www.w3.org/Graphics/SVG/1.1/DTD/svg11.dtd">
<svg version="1.1" id="Ebene_1" xmlns="http://www.w3.org/2000/svg" xmlns:xlink="http://www.w3.org/1999/xlink" x="0px" y="0px"
	 width="841.89px" height="1190.55px" viewBox="0 0 841.89 1190.55" enable-background="new 0 0 841.89 1190.55"
	 xml:space="preserve">
<g>
	<path fill="#F7A424" stroke="#FFE244" stroke-width="7" d="M349.851,528.945c19.682-6.547,46.045,0.179,55.987,9.234
		c10.455,9.521,21.971,17.276,41.677,20.641c-3.226-7.952-10.873-14.606-17.847-21.748c-8.074-8.272-11.779-18.928-9.771-28.692
		c1.99-9.677,11.686-18.925,16.389-28.265c7.889-15.666,23.463-31.301,50.933-33.534c-23.911,0.407-9.859,34.393-6.418,43.175
		c4.74,12.096,11.118,22.778,17.799,34.485c7.329,12.845,16.42,18.479,35.39,26.96c18.461,8.256,34.594,18.432,46.71,30.126
		c24.24,23.393,23.221,66.728-12.396,86.626c-20.927,11.69-64.578,17.182-94.361,17.323c-38.215,0.181-61.439-4.54-85.01-21.959
		c-18.107-13.382-20.388-30.556-22.108-47.331c-0.756-7.365,7.379-28.657,11.069-35.286c2.786-5.007,0.369,0.642,4.06-4.705
		c6.208-8.997,14.172-14.958,9.592-24.167c-2.553-5.132-13.74-13.588-20.661-19.032c-5.166-4.063-22.548-1.547-17.71-5.134"/>
	<path fill="#EC641D" d="M509.9,561.204c-17.013-4.56-37.575,13.184-46.753,19.325c-15.219,10.186-28.63,18.235-29.801,32.138
		c-2.265,26.914,40.234,51.92,88.46,45.766c21.735-2.775,32.779-10.565,40.296-21.771c5.406-8.061,8.4-20.918,4.563-30.12
		c-4.563-10.951-21.311-24.637-38.238-24.64c-10.438-0.003-15.235-22.964-20.003-20.91"/>
	<path fill="#E84916" d="M508.425,563.771c-15.796-4.273-33.915,13.063-42.436,18.82c-14.13,9.546-26.581,17.091-27.668,30.12
		c-2.103,25.225,37.355,48.661,82.13,42.893c20.183-2.6,30.436-9.901,37.414-20.404c5.021-7.555,7.801-19.605,4.238-28.229
		c-4.238-10.266-19.788-23.092-35.503-23.095c-9.691-0.002-14.487-22.243-18.914-20.318"/>
</g>
<g>
	<path fill="#F7A424" stroke="#FFE244" stroke-width="10" d="M374.324,546.521c-3.444,10.612-3.271,20.854,2.432,31.365
		c6.055,11.156,18.689,21.269,25.843,32.335c13.196,20.414,56.748,43.133,39.816,66.01c-6.354,8.584-12.977,16.226-28.713,21.748
		c-14.999,5.264-31.024,8.542-48.331,11.323c-40.121,6.445-95.768,5.019-133.605-4.283c-43.938-10.803-41.374-33.815-26.546-53.158
		c7.46-9.731,19.745-18.578,23.696-28.902c4.036-10.544,12.556-22.365,12.379-33.039c25.744,1.111,23.604,18.098,27,26.686
		c8.419-16.292-0.954-33.549,6.352-49.62c3.392-7.463,8.851-12.885,10.271-20.55c1.07-5.771,4.025-11.962,2.496-17.777
		c-1.572-5.983-5.802-11.982-7.746-17.955c9.443,5.489,20.974,8.721,28.049,15.247c8.204,7.569,13.234,17.026,14.063,25.612
		c0.869,9.01-1.087,17.678-0.896,26.646c0.19,9.046,8.791,15.582,19.096,22.551c0.853-5.615-0.43-11.388,1.009-16.994
		c1.606-6.261,5.142-12.347,7.031-18.513c1.581-5.162,3.356-8.699,11.406-12.225c4.321-1.893,11.772-4.146,13.147-6.506"/>
	<path fill="#E9501E" stroke="#EE7532" stroke-width="7" d="M249.079,657.055c4.977-1.894,19.473-1.497,24.53,0.855
		c8.762,4.076-7.701,10.261-14.894,14.556c-23.653,14.126,7.414,21.208,77.092,23.136c28.678,0.793,29.875-16.192,21.516-25.723
		c-5.189-5.917-21.17-18.284-1.819-22.691c-19.273-0.444-19.012,11.465-24.949,17.145c-10.801-8.096-1.52-9.589-0.876-18.408
		c0.769-10.547-13.237-17.905-35.92-18.407c11.86,6.239,17.018,17.007,11.39,25.257c-3.504,5.137-3.652-4.763-3.504,2.568
		C299.313,647.754,257.644,647.457,249.079,657.055"/>
</g>
<g>
	<path fill="#E84B1A" d="M645.86,735.963c-0.048,0.54,0.088,1.004-0.071,1.537"/>
	<path fill="#F7A526" stroke="#FFE245" stroke-width="10" d="M697.031,496.527c-13.559-0.681-31.782,18.38-31.531,26.896
		c0.402,13.683,27.69,13.356,38.393,23.156c24.095,22.061,30.977,49.151,19.954,74.739c19.172-9.328,38.28-19.304,65.188-18.063
		c-11.486,7.531-10.585,23.919-12.161,33.595c-2.191,13.452,3.036,26.362,4.146,39.475c1.964,23.18-10.473,26.39-49.138,35.306
		c-37.248,8.587-116.806,7.767-143.844-11.041c-30.932-21.518-11.384-27.249-37.988-50.821
		c-6.315-5.596-14.881-10.107-24.431-13.499c22.145-0.234,40.505,10.388,59.348,15.831c12.845-16.283-10.333-45.732-22.347-60.957
		c25.405-1.226,39.355,12.501,56.395,20.719c0.577-11.065-15.271-25.578-21.132-36.369c-7.202-13.257-7.658-26.65-1.656-40.06
		C606.485,512.518,655.353,495.826,697.031,496.527"/>
	<path fill="#E9531E" stroke="#EC651E" stroke-width="7" d="M744.405,640.188c-0.189-1.743,2.521,11.675-25.176,10.993
		c-14.448-0.356-25.937-5.272-24.354-14.291c1.763-10.04-5.563-18.833-5.563-28.376c0-10.781,8.738-17.865,15.983-27.603
		c-13.648-0.203-31.238,10.114-40.733,15.72c-14.115,8.329-23.771,19.743-30.174,31.313c-10.893,19.677-15.292,53.089,14.568,66.644
		c23.272,10.564,59.205,5.549,80.304-4.96c14.147-7.047,24.163-17.028,24.166-28.095c0.003-8.151-8.697-13.815-7.991-21.688"/>
</g>
<g>
	<path fill="#E84B1A" d="M124.981,747.72c-0.034,0.335,0.063,0.622-0.051,0.952"/>
	<path fill="#F7A526" stroke="#FFE245" stroke-width="10" d="M161.368,599.434c-9.641-0.422-22.599,11.382-22.421,16.656
		c0.286,8.474,19.69,8.272,27.3,14.341c17.133,13.663,22.026,30.44,14.189,46.287c13.632-5.776,27.22-11.954,46.354-11.186
		c-8.167,4.663-7.526,14.813-8.647,20.806c-1.558,8.331,2.159,16.327,2.949,24.447c1.396,14.355-7.447,16.345-34.941,21.865
		c-26.485,5.318-83.058,4.811-102.284-6.838c-21.994-13.326-8.094-16.876-27.012-31.475c-4.491-3.465-10.582-6.259-17.372-8.359
		c15.747-0.146,28.802,6.434,42.202,9.804c9.133-10.084-7.349-28.322-15.891-37.752c18.065-0.759,27.985,7.743,40.1,12.832
		c0.412-6.854-10.858-15.841-15.027-22.524c-5.121-8.209-5.445-16.504-1.178-24.809C96.983,609.336,131.732,598.999,161.368,599.434
		"/>
	<path fill="#E9531E" stroke="#EC651E" stroke-width="7" d="M195.055,688.404c-0.135-1.079,1.792,7.23-17.902,6.809
		c-10.273-0.221-18.442-3.265-17.317-8.851c1.252-6.218-3.956-11.664-3.956-17.573c0-6.678,6.213-11.065,11.365-17.096
		c-9.705-0.125-22.212,6.265-28.964,9.735c-10.036,5.159-16.902,12.228-21.455,19.393c-7.745,12.188-10.874,32.88,10.359,41.274
		c16.55,6.543,42.1,3.437,57.103-3.072c10.06-4.364,17.182-10.546,17.184-17.399c0.001-5.048-6.184-8.556-5.682-13.432"/>
</g>
</svg>
