<?xml version="1.0" encoding="utf-8"?>
<!-- Generator: Adobe Illustrator 15.0.0, SVG Export Plug-In . SVG Version: 6.00 Build 0)  -->
<!DOCTYPE svg PUBLIC "-//W3C//DTD SVG 1.1//EN" "http://www.w3.org/Graphics/SVG/1.1/DTD/svg11.dtd">
<svg version="1.1" id="Ebene_1" xmlns="http://www.w3.org/2000/svg" xmlns:xlink="http://www.w3.org/1999/xlink" x="0px" y="0px"
	 width="841.89px" height="1190.55px" viewBox="0 0 841.89 1190.55" enable-background="new 0 0 841.89 1190.55"
	 xml:space="preserve">
<g>
	<g>
		<g>
			<path fill="#BE1823" d="M529.374,200.794c0.719,4.54-2.396,8.8-6.957,9.515c0,0-91.625-9.501-121.704-4.785
				c-30.078,4.717-114.333,41.797-114.333,41.797c-4.56,0.715-8.84-2.385-9.559-6.925l-19.404-122.62
				c-0.718-4.539,2.396-8.799,6.958-9.515c0,0,85.224-32.318,115.091-37.002c29.869-4.684,120.944-0.011,120.944-0.011
				c4.561-0.715,8.839,2.385,9.559,6.925L529.374,200.794z"/>
			<path fill="none" stroke="#010202" stroke-miterlimit="10" d="M530.07,201.488c0.719,4.539-2.396,8.8-6.956,9.516
				c0,0-91.626-9.501-121.704-4.785c-30.079,4.717-114.334,41.797-114.334,41.797c-4.56,0.715-8.839-2.386-9.558-6.925
				l-19.405-122.619c-0.718-4.54,2.396-8.799,6.958-9.516c0,0,85.224-32.318,115.092-37.002
				c29.868-4.683,120.944-0.011,120.944-0.011c4.561-0.715,8.838,2.385,9.558,6.925"/>
		</g>
	</g>
	<polygon opacity="0.37" fill="#CB4C40" enable-background="new    " points="328.852,235.713 307.357,239.084 285.567,101.387 
		307.063,98.017 	"/>
	<polygon opacity="0.37" fill="#CB4C40" enable-background="new    " points="380.819,216.485 359.325,219.855 337.535,82.159 
		359.03,78.788 	"/>
	<polygon opacity="0.37" fill="#CB4C40" enable-background="new    " points="428.523,209.011 407.028,212.382 385.239,74.686 
		406.734,71.315 	"/>
	<polygon opacity="0.37" fill="#CB4C40" enable-background="new    " points="483.176,206.442 461.68,209.813 439.89,72.116 
		461.387,68.745 	"/>
	<polygon opacity="0.37" fill="#CB4C40" enable-background="new    " points="495.044,75.371 504,72 525.79,209.699 
		516.834,213.071 	"/>
	<g>
		<g>
			<path fill="#DADADA" d="M276.207,243.975c-2.725-17.214,52.372-40.153,123.059-51.237c70.688-11.084,130.2-6.116,132.924,11.098
				c2.724,17.213-52.371,40.152-123.059,51.237C338.443,266.156,278.931,261.188,276.207,243.975z"/>
			<path fill="none" stroke="#010202" stroke-miterlimit="10" d="M276.207,243.975c-2.725-17.214,52.372-40.153,123.059-51.237
				c70.688-11.084,130.2-6.116,132.924,11.098c2.724,17.213-52.371,40.152-123.059,51.237
				C338.443,266.156,278.931,261.188,276.207,243.975z"/>
		</g>
	</g>
	<g>
		<g>
			<g>
				<path fill="none" stroke="#010202" stroke-width="5" stroke-miterlimit="10" d="M360.661,198.785
					c-0.78,8.889,7.935,35.013,16.085,39.249c7.959,4.137,24.003,0.799,32.757-0.223c9.752-1.139,27.873-4.358,27.659-19.08
					c-0.102-7.04,2.308-24.335,1.478-30.77"/>
			</g>
		</g>
	</g>
	<g>
		<g>
			<path fill="none" stroke="#010202" stroke-width="5" stroke-miterlimit="10" d="M367.324,73.265
				c5.641-1.432,13.155-0.907,19.485-1.651c4.579-0.539,15.562-3.558,18.907-0.403c-6.247-5.358-28.052-12.813-33.279-1.729
				c5.051,2.214,29.622,2.822,26.649-3.829c-3.404-7.613-26.247-4.431-30.711-0.116c-11.86,11.463,19.455,8.92,24.218,7.976
				c3.416-0.679,12.886-3.327,12.305-8.227c-0.652-5.494-11.92-6.143-15.695-5.28c-4.78,1.094-12.322,9.698-3.313,10.364
				c6.997,0.517,4.458-10.068,4.64-14.238c0.288-6.644,1.235-11.896-3.721-16.811c-4.111-4.074-14.555-7.76-20.254-7.246
				c1.099,9.207,46.777,7.974,52.898,0.723"/>
		</g>
	</g>
	<g>
		<g>
			<path fill="#CA9E67" stroke="#1E1E1C" d="M440.134,645.603c9.758,21.903,5.061,43.738-19.639,51.474
				c-22.619,7.083-55.598-3.016-78.702-8.228c-40.223-9.078-100.369-12.835-113.174,38.234c-2.651,10.576-4.86,28.155,0.388,38.334
				c7.651,14.843,23.941,4.902,31.124-8.357c7.512-13.867-2.285-25.934,5.976-39.215c6.018-9.674,15.789-16.174,27.501-18.813
				c46.886-10.565,93.73,39.407,141.467,13.483c26.455-14.365,23.281-35.287,21.07-60.606c-0.777-8.911,0.271-29.441-14.75-23.043
				c-9.367,3.99-8.35,20.911-4.448,28.447c2.112,1.235,0.098-1.149,0.83-1.988"/>
			<path fill="none" stroke="#010202" stroke-miterlimit="10" d="M435.074,713.208c26.455-14.365,23.281-35.288,21.07-60.604
				c-0.777-8.912,0.271-29.443-14.75-23.043c-9.367,3.99-8.35,20.911-4.448,28.445c2.112,1.235,0.098-1.148,0.83-1.986"/>
			<path fill="none" stroke="#010202" stroke-miterlimit="10" d="M293.607,699.724"/>
			<path fill="none" stroke="#010202" stroke-miterlimit="10" d="M440.134,646.296c9.758,21.904,5.061,43.739-19.639,51.475
				c-22.619,7.082-55.598-3.018-78.702-8.229c-40.223-9.077-100.369-12.836-113.174,38.235c-2.651,10.575-4.86,28.154,0.388,38.333
				c7.651,14.844,23.941,4.903,31.124-8.356c7.512-13.868-2.285-25.936,5.976-39.216"/>
		</g>
	</g>
	<path fill="#CA9E67" stroke="#010202" stroke-miterlimit="10" d="M427.468,242.25c0.972,6.146,4.059,13.367-8.278,15.302
		c-12.335,1.934-35.421-2.152-36.394-8.297c-0.973-6.146,8.239-12.696,20.575-14.63C415.706,232.69,426.494,236.104,427.468,242.25z
		"/>
	<g>
		<g>
			<path fill="#B1804A" d="M269.727,509.241c-19.085-5.648-18.648,17.104-27.358,27.214c-9.85,11.433-29.7,16.089-38.178,29.273
				c-7.937,12.342-7.642,34.422-11.375,48.698c-5.078,19.419-14.838,27.904-25.594,44.198c5.925,0.989,11.406,2.881,17.027,4.208
				c8.885-13.089,14.709-25.252,26.258-36.895c11.757-11.853,18.063-21.817,22.391-38.174c5.213-19.705,14.966-21.973,30.948-34.266
				c12.433-9.563,24.369-21.485,36.031-31.938c-19.767,16.692,7.517,44.317,7.734,63.403c0.297,25.946,1.931,37.213,20.825,56.553
				c6.447,6.6,16.011,12.335,21.797,19.505c10.041,12.444,0.944,14.75-4.896,28.345c-10.631,24.742-8.554,43.6,16.505,54.364
				c26.545,11.405,44.031,7.232,69.04-4.172c-6.604,11.508-10.974,37.483,0.394,47.009c22.074,18.497,26.214-20.306,27.071-33.111
				c4.376,2.36,7.742,1.33,12.492,0.509c15.734-28.133-29.248-24.998-44.865-28.174c-13.479-2.744-22.918-3.201-26.897-17.632
				c-3.395-12.312,1.466-23.956-1.292-36.829c28.752-6.009,54.159-10.309,74.894-32.379c15.41-16.401,34.926-46.779,35.451-69.242
				c-1.013,25.128,0.113,56.739,26.598,68.473c9.907,4.389,25.911,10.208,36.957,5.656c13.648-5.622,11.087-20.702-4.511-21.021
				c0.018-0.313-0.505-3.429-0.625-3.745c9.427-1.393,33.363-6.855,28.007-20.112c-2.511,0.108-4.203-1.029-6.862-0.819
				c0.438-3.083-1.526-6.133-0.424-9.534c-18.119,1.977-34.08,7.145-49.31,15.576c-3.264-21.872,6.545-45.755-0.275-66.757
				c-2.817-8.675-11.744-18.95-20.505-19.704c-13.134-1.13-18.706,11.915-28.946,17.109c-20.419,10.358-41.551-12.313-56.714-24.094
				c-14.163-11.005-40.134-16.065-48.329-32.535c-7.822-15.726,17.118-39.383,25.646-53.775
				c8.348-14.094,23.738-40.791,21.11-57.791c-2.872-18.573-22.194-34.294-24.429-52.37c-1.797-14.522,4.33-40.914,12.871-53.238
				c-0.036-1.128-1.621-6.625-2.322-8.049c-25.811-1.003-22.491,34.655-31.637,50.909c-11.892,21.14-13.536,34.078-8.432,58.312
				c4.635,22.004,6.571,47.105,6.554,69.173c-0.019,23.935-10.498,36.155-33.007,45.605c-23.32,9.792-60.691-0.504-79.436,16.441"/>
			<path fill="none" stroke="#010202" stroke-miterlimit="10" d="M270.423,509.935c-19.085-5.648-18.648,17.104-27.357,27.214
				c-9.85,11.433-29.7,16.089-38.178,29.273c-7.937,12.342-7.642,34.422-11.375,48.699c-5.078,19.418-14.838,27.903-25.594,44.197
				c5.925,0.989,11.406,2.881,17.027,4.208c8.886-13.089,14.71-25.252,26.258-36.895c11.757-11.853,18.063-21.817,22.391-38.173
				c5.213-19.706,14.966-21.974,30.948-34.267c12.432-9.563,24.369-21.485,36.032-31.938c-19.767,16.692,7.516,44.317,7.733,63.402
				c0.296,25.947,1.931,37.214,20.825,56.554c6.447,6.6,16.012,12.335,21.797,19.506c10.042,12.444,0.944,14.749-4.896,28.343
				c-10.631,24.743-8.555,43.6,16.505,54.365c26.546,11.406,44.031,7.232,69.04-4.172c-6.604,11.507-10.975,37.484,0.395,47.008
				c22.074,18.498,26.214-20.306,27.07-33.109c4.376,2.359,7.742,1.329,12.491,0.509c15.735-28.134-29.248-24.999-44.864-28.175
				c-13.479-2.744-22.917-3.201-26.896-17.631c-3.396-12.313,1.465-23.957-1.293-36.83c28.753-6.008,54.16-10.308,74.895-32.379
				c15.41-16.4,34.926-46.779,35.451-69.243c-1.013,25.129,0.112,56.74,26.598,68.474c9.906,4.389,25.909,10.209,36.957,5.656
				c13.647-5.622,11.086-20.702-4.511-21.021c0.016-0.313-0.506-3.429-0.626-3.745c9.428-1.393,33.363-6.854,28.008-20.112
				c-2.511,0.108-4.204-1.029-6.862-0.819c0.438-3.083-1.527-6.133-0.425-9.533c-18.119,1.976-34.081,7.144-49.309,15.575
				c-3.265-21.873,6.544-45.754-0.276-66.757c-2.816-8.674-11.744-18.95-20.504-19.703c-13.136-1.131-18.707,11.913-28.946,17.109
				c-20.42,10.358-41.552-12.314-56.714-24.094c-14.164-11.006-40.135-16.066-48.329-32.536
				c-7.822-15.727,17.117-39.383,25.645-53.775c8.348-14.095,23.739-40.791,21.11-57.791c-2.871-18.573-22.195-34.293-24.429-52.369
				c-1.796-14.522,4.331-40.914,12.871-53.238c-0.035-1.128-1.62-6.626-2.321-8.049c-25.813-1.003-22.492,34.656-31.637,50.909
				c-11.892,21.14-13.537,34.079-8.432,58.311c4.635,22.004,6.57,47.105,6.554,69.174c-0.019,23.934-10.498,36.155-33.009,45.605
				c-23.318,9.791-60.689-0.504-79.435,16.441"/>
		</g>
	</g>
	<g>
		<g>
			<path fill="#B1804A" d="M245.483,443.682c8.392,18.557-32.088,20.648-40.605,9.619c-17.64-22.841,19.688-25.664,31.167-24.436
				c-1.806-11.2-6.893-20.419-3.696-31.837c3.908-13.959,12.758-19.226-6.416-25.067c4.668-8.555,13.713-17.708,22.427-9.423
				c-3.006-2.59-7.742-5.786-11.028-7.445c7.729-6.888,22.521-11.862,28.572-1.037c-3.32-4.975-9.565-8.146-14.716-11.268
				c11.355-3.336,19.816-7.238,28.824,2.169c-2.961-2.225-6.471-5.894-9.541-8.064c14.481-5.03,46.444,2.698,60.017,9.322
				c12.912,6.301,28.222,19.131,33.83,30.333c2.782-16.833,19.733-7.707,24.798,1.631c7.463,13.759-8.145,38.41-18.049,16.18
				c-9.885,4.237-14.473,14.471-22.396,21.282c-9.271,7.971-18.816,16.276-29.491,22.178
				C301.269,447.718,263.248,458.505,245.483,443.682"/>
			<path fill="none" stroke="#010202" stroke-miterlimit="10" d="M245.484,443.218c8.392,18.557-32.088,20.648-40.605,9.619
				c-17.64-22.839,19.688-25.664,31.167-24.435c-1.807-11.199-6.893-20.419-3.696-31.836c3.908-13.959,12.757-19.226-6.416-25.067
				c4.668-8.555,13.713-17.708,22.427-9.423c-3.006-2.59-7.742-5.786-11.029-7.445c7.729-6.888,22.521-11.863,28.573-1.037
				c-3.321-4.975-9.566-8.146-14.717-11.268c11.356-3.336,19.816-7.238,28.823,2.169c-2.961-2.225-6.47-5.894-9.54-8.064
				c14.481-5.03,46.444,2.699,60.016,9.322c12.913,6.302,28.222,19.132,33.831,30.333c2.781-16.833,19.734-7.706,24.799,1.631
				c7.461,13.759-8.146,38.409-18.051,16.18c-9.885,4.236-14.473,14.47-22.396,21.281c-9.271,7.97-18.816,16.277-29.491,22.177
				C301.27,447.254,263.249,458.043,245.484,443.218"/>
		</g>
	</g>
	<g>
		<g>
			<path fill="#946137" stroke="#1E1E1C" d="M172.279,649.217c4.268,6.875,8.2,10.61,15.998,12.133
				c6.933,1.354,20.347-6.637,25.596-4.396c10.501,4.481,4.812,14.726-3.026,17.729c-7.928,3.039-16.355-1.974-23.374-4.709
				c-17.67,19.871-19.454,63.698-53.838,44.002c-15.701-8.993-12.833-18.205,0.506-32.711c8.708-9.469,21.067-20.68,33.848-22.78"/>
			<path fill="none" stroke="#010202" stroke-miterlimit="10" d="M133.942,714.024c-15.7-8.994-12.833-18.205,0.507-32.712
				c8.708-9.47,21.068-20.68,33.849-22.779"/>
			<path fill="none" stroke="#010202" stroke-miterlimit="10" d="M172.587,649.265c4.269,6.875,8.2,10.609,15.997,12.133
				c6.934,1.354,20.348-6.637,25.596-4.396c10.501,4.482,4.813,14.726-3.025,17.729c-7.928,3.038-16.355-1.973-23.374-4.709"/>
		</g>
	</g>
	<path fill="#946137" stroke="#010202" stroke-miterlimit="10" d="M396.31,235.75c-1.06-6.692,0.745-12.534,4.029-13.049
		c3.286-0.515,6.808,4.492,7.866,11.184s-0.745,12.534-4.03,13.049C400.891,247.449,397.369,242.441,396.31,235.75z"/>
	<path fill="#946137" stroke="#010202" stroke-miterlimit="10" d="M384.001,235.057c-1.059-6.691,0.747-12.533,4.032-13.048
		s6.807,4.491,7.865,11.183c1.058,6.691-0.745,12.533-4.031,13.048C388.582,246.755,385.061,241.748,384.001,235.057z"/>
	<path fill="#946137" stroke="#010202" stroke-miterlimit="10" d="M407.784,231.341c-1.058-6.692,0.747-12.534,4.031-13.049
		c3.284-0.516,6.806,4.492,7.863,11.184c1.06,6.692-0.745,12.534-4.029,13.049S408.845,238.032,407.784,231.341z"/>
	<path fill="#CA9E67" d="M360.088,577.901c-19.248,8.843-33.107-8.693-38.549-23.759c-7.672-21.253-7.251-38.084,10.408-53.097
		c17.3-14.707,40.681-20.089,60.657-7.012c14.552,9.524,24.343,26.111,16.652,43.76c20.159,1.847,43.284,7.18,59.561,20.162
		c22.625,18.047,15.068,40.369,3.291,61.195c-13.246,23.424-29.383,40.454-57.866,42.917c-23.977,2.072-52.739-7.267-62.646-29.687
		c-7.139-16.153-8.798-44.579,6.719-55.418"/>
	<g>
		<path fill="#946137" d="M408.917,604.793c-0.173-0.516-0.159-1.142,0.041-1.717c0.197-0.589,0.628-1.139,1.177-1.518
			c0.55-0.379,1.187-0.593,1.8-0.662c0.614-0.081,1.218-0.017,1.757,0.174c1.094,0.38,1.893,1.182,2.737,1.707
			c0.846,0.548,1.746,0.961,2.706,1.382c0.965,0.41,1.871,0.965,2.627,1.667c0.784,0.678,1.527,1.419,2.091,2.288
			c1.098,1.746,1.785,3.772,1.647,5.912l-0.26,0.101c-1.526-1.473-2.669-2.891-3.816-4.301c-0.563-0.709-1.041-1.476-1.585-2.209
			c-0.567-0.714-1.093-1.474-1.649-2.268c-0.564-0.776-1.291-1.436-2.173-1.777c-0.877-0.358-1.911-0.27-2.732-0.226
			c-1.682,0.043-2.639-0.233-4.097,1.509L408.917,604.793z"/>
	</g>
	<g>
		<path fill="#946137" d="M428.216,611.22c-0.513,1.124-1.582,1.893-2.654,2.365c-0.544,0.241-1.11,0.417-1.684,0.531
			c-0.569,0.125-1.152,0.167-1.729,0.113c-1.164-0.105-2.268-0.577-3.348-0.756c-1.085-0.197-2.179-0.217-3.324-0.21
			c-1.146,0.013-2.303-0.112-3.401-0.467c-1.109-0.321-2.222-0.746-3.207-1.434c-0.976-0.689-1.861-1.582-2.469-2.668
			c-0.603-1.074-0.933-2.361-0.664-3.541l0.275-0.047c1.296,1.86,2.808,2.787,4.479,3.771c0.827,0.479,1.655,1.012,2.553,1.479
			c0.908,0.431,1.819,0.931,2.776,1.426c0.956,0.485,1.997,0.802,3.063,0.798c1.066,0.012,2.127-0.417,3.117-0.661
			c0.5-0.122,0.989-0.194,1.485-0.241l1.472-0.168c0.993-0.123,1.94-0.244,3.086-0.508L428.216,611.22z"/>
	</g>
	<path fill="#946137" d="M383.027,411.436c6.013,10.828,6.871,32.126-3.153,46.238c-8.333,11.73-25.458,16.385-41.703,25.326
		c-35.783,19.691-73.721,19.582-84.734-0.247c-7.829-14.097-5.764-39.556,12.307-57.168c6.868-6.696,20.291-8.476,30.463-13.326
		c2.365-1.127,3.57-4.416,1.946-3.521c3.021-1.663,6.479,0.167,9.289-1.156c1.098-0.517,1.807-3.057,2.786-4.161
		c1.68-1.895,5.384-0.225,7.704-1.037C347.033,392.194,374.025,395.226,383.027,411.436z"/>
	<path fill="#010202" stroke="#010202" stroke-miterlimit="10" d="M261.534,438.722c16.219,7.582,29.689,5.946,47.237,4.247
		c15.878-1.537,38.941-0.043,52.19-9.819c-12.211,10.469-3.173,23.833-6.207,37.566c-3.621,16.385-18.745,20.934-32.108,18.151
		c-25.896-5.395-37.94-27.647-57.753-44.844"/>
	<path fill="#FFFFFF" stroke="#010202" stroke-miterlimit="10" d="M290.363,452.487c23.598,6.107,39.042,8.038,61.289-13.066
		c-0.823-0.352-2.513,3.952-3.369,3.656c-2.086-0.72-45.65-1.316-55.937,1.949c-5.858,1.86-13.896-2.159-18.524-0.419"/>
	<path fill="#FFFFFF" stroke="#010202" d="M313.935,480.155c4.853-2.852,13.636-4.937,19.898-3.033
		c1.403,0.425,7.896-0.322,8.975,0.543c1.184,0.948,0.183,2.708,0.702,3.504c3.631,5.576-10.947,8.018-16.255,7.73
		C323.31,488.688,304.249,485.849,313.935,480.155z"/>
	
		<ellipse transform="matrix(-0.9879 0.155 -0.155 -0.9879 662.951 768.2859)" fill="#FFFFFF" stroke="#010202" cx="301.525" cy="409.987" rx="2.089" ry="1.214"/>
	
		<ellipse transform="matrix(-0.9879 0.1551 -0.1551 -0.9879 684.6919 756.0216)" fill="#FFFFFF" stroke="#010202" cx="312.844" cy="404.729" rx="2.09" ry="1.214"/>
	<path fill="#FFFFFF" stroke="#1E1E1C" d="M309.985,385.064c-1.542-8.16,1.33-15.316,6.416-15.983
		c5.085-0.667,10.457,5.407,12.001,13.567c1.543,8.159-1.329,15.315-6.414,15.982C316.904,399.298,311.528,393.224,309.985,385.064z
		"/>
	<path fill="none" stroke="#B1804A" stroke-miterlimit="10" d="M126.963,709.13c-0.639-5.118,4.992-17.548,11.323-17.571"/>
	<path fill="none" stroke="#B1804A" stroke-miterlimit="10" d="M133.861,712.611c-1.099-7.278,4.012-10.705,10.254-13.191"/>
	<path fill="none" stroke="#B1804A" stroke-miterlimit="10" d="M142.75,717.534c-0.73-3.273-1.982-6.245,0.005-9.381
		c1.478-2.327,5.273-5.046,7.624-4.802"/>
	<path fill="#F9EED9" stroke="#D5C19A" stroke-width="4" stroke-miterlimit="10" d="M376.411,385.21
		c3.63-0.148,7.433-3.023,9.61,1.236c1.885,3.69-1.292,6.95-4.371,8.087c-1.435-0.924-1.511-2.444-0.646-4.076"/>
	<path fill="#F9EED9" stroke="#D5C19A" stroke-width="4" stroke-miterlimit="10" d="M220.276,440.237
		c-3.499,0.978-8.012-0.638-8.754,4.17c-0.643,4.165,3.396,6.347,6.679,6.5c1.076-1.341,0.673-2.839-0.656-4.157"/>
	<path fill="#946137" stroke="#010202" stroke-miterlimit="10" d="M419.863,232.048c-1.059-6.692,0.745-12.535,4.029-13.049
		c3.285-0.516,6.807,4.492,7.865,11.185c1.06,6.692-0.744,12.534-4.03,13.05C424.442,243.748,420.921,238.741,419.863,232.048z"/>
</g>
<g>
	<path fill="#E84B1A" d="M124.981,1160.72c-0.034,0.335,0.063,0.622-0.051,0.952"/>
</g>
<ellipse fill="#78B0AE" stroke="#010202" stroke-width="2" cx="320.75" cy="388.5" rx="4.25" ry="4"/>
<path fill="#FFFFFF" stroke="#1E1E1C" d="M269.985,400.064c-1.542-8.16,1.33-15.316,6.416-15.983
	c5.085-0.667,10.457,5.407,12.001,13.567c1.543,8.159-1.329,15.315-6.414,15.982C276.904,414.298,271.528,408.224,269.985,400.064z"
	/>
<ellipse fill="#78B0AE" stroke="#010202" stroke-width="2" cx="281" cy="403" rx="4.25" ry="4"/>
<ellipse fill="#FFFFFF" cx="320.75" cy="386.75" rx="1.75" ry="1.25"/>
<ellipse fill="#FFFFFF" cx="280.5" cy="401" rx="1.75" ry="1.25"/>
</svg>
