<?xml version="1.0" encoding="utf-8"?>
<!-- Generator: Adobe Illustrator 15.0.0, SVG Export Plug-In . SVG Version: 6.00 Build 0)  -->
<!DOCTYPE svg PUBLIC "-//W3C//DTD SVG 1.1//EN" "http://www.w3.org/Graphics/SVG/1.1/DTD/svg11.dtd">
<svg version="1.1" id="Ebene_1" xmlns="http://www.w3.org/2000/svg" xmlns:xlink="http://www.w3.org/1999/xlink" x="0px" y="0px"
	 width="841.89px" height="1190.55px" viewBox="0 0 841.89 1190.55" enable-background="new 0 0 841.89 1190.55"
	 xml:space="preserve">
<g>
	<path fill="#F7A424" stroke="#FFE244" stroke-width="7" d="M255.601,556.408c-3.335,2.367,8.646,0.706,12.206,3.389
		c4.771,3.593,12.481,9.173,14.241,12.561c3.157,6.078-2.333,10.013-6.612,15.95c-2.543,3.529-0.877-0.199-2.797,3.105
		c-2.544,4.375-8.15,18.428-7.63,23.289c1.187,11.071,2.758,22.407,15.238,31.238c16.244,11.497,32.252,14.612,58.591,14.493
		c20.528-0.095,50.615-3.719,65.038-11.434c24.548-13.134,25.25-41.733,8.544-57.174c-8.352-7.718-19.472-14.434-32.194-19.882
		c-13.074-5.598-19.34-9.316-24.392-17.794c-4.604-7.727-9.001-14.777-12.267-22.76c-2.373-5.796-12.059-28.227,4.423-28.495
		c-18.934,1.474-29.667,11.793-35.104,22.132c-3.242,6.164-9.926,12.268-11.296,18.654c-1.384,6.445,1.169,13.478,6.735,18.938
		c4.806,4.713,10.077,9.104,12.3,14.353c-13.582-2.22-21.52-7.338-28.726-13.621c-6.853-5.978-25.022-10.416-38.588-6.095"/>
	<path fill="#EC641D" d="M356.05,584.779c3.286-1.355,6.594,13.799,13.787,13.8c11.667,0.003,23.21,9.035,26.355,16.264
		c2.645,6.073,0.58,14.559-3.146,19.879c-5.182,7.396-12.792,12.537-27.774,14.368c-33.237,4.063-62.53-12.441-60.97-30.204
		c0.808-9.176,10.051-14.488,20.54-21.211c6.326-4.054,20.498-15.764,32.224-12.754"/>
	<path fill="#E84916" d="M355.541,586.474c3.051-1.271,6.357,13.408,13.036,13.409c10.832,0.003,21.549,8.468,24.47,15.242
		c2.455,5.692,0.538,13.646-2.921,18.632c-4.81,6.932-11.876,11.751-25.787,13.467c-30.859,3.808-58.057-11.661-56.606-28.309
		c0.748-8.6,9.331-13.579,19.07-19.88c5.872-3.8,18.36-15.242,29.247-12.421"/>
</g>
<g>
	<path fill="#F7A526" stroke="#FFE245" stroke-width="10" d="M585.276,565.905c3.334,2.367-8.646,0.706-12.206,3.388
		c-4.771,3.594-12.481,9.174-14.241,12.562c-3.157,6.078,2.333,10.013,6.612,15.95c2.543,3.528,0.877-0.199,2.797,3.105
		c2.543,4.375,8.15,18.428,7.629,23.289c-1.186,11.071-2.757,22.406-15.237,31.238c-16.245,11.496-32.253,14.612-58.592,14.492
		c-20.527-0.094-50.614-3.718-65.037-11.433c-24.548-13.134-25.25-41.733-8.544-57.174c8.352-7.718,19.471-14.434,32.194-19.883
		c13.074-5.597,19.34-9.315,24.391-17.793c4.604-7.727,9.001-14.777,12.268-22.76c2.373-5.797,12.059-28.228-4.423-28.496
		c18.934,1.474,29.668,11.793,35.104,22.133c3.241,6.164,9.925,12.268,11.296,18.654c1.384,6.445-1.17,13.478-6.736,18.938
		c-4.805,4.713-10.077,9.104-12.3,14.354c13.582-2.221,21.52-7.339,28.726-13.623c6.853-5.977,25.022-10.415,38.588-6.094"/>
	<path fill="#EC641D" d="M484.826,594.276c-3.286-1.355-6.594,13.799-13.788,13.801c-11.666,0.002-23.209,9.034-26.355,16.263
		c-2.644,6.072-0.58,14.559,3.146,19.879c5.182,7.396,12.793,12.537,27.774,14.368c33.237,4.062,62.53-12.442,60.969-30.205
		c-0.806-9.176-10.05-14.488-20.539-21.211c-6.325-4.054-20.498-15.764-32.224-12.754"/>
	<path fill="#E84916" d="M485.335,595.97c-3.052-1.271-6.357,13.408-13.037,13.41c-10.831,0.003-21.548,8.468-24.469,15.242
		c-2.455,5.692-0.539,13.646,2.921,18.632c4.81,6.931,11.876,11.75,25.786,13.467c30.86,3.807,58.057-11.661,56.607-28.31
		c-0.749-8.6-9.331-13.579-19.07-19.88c-5.873-3.799-18.36-15.242-29.247-12.421"/>
</g>
<path fill="#F7A526" stroke="#FFE245" stroke-width="10" d="M403.486,521.378c25.504-0.527,55.406,12.011,61.684,29.225
	c3.673,10.072,3.393,20.133-1.014,30.09c-3.587,8.107-13.285,19.008-12.932,27.32c10.427-6.174,18.963-16.484,34.509-15.563
	c-7.351,11.437-21.534,33.558-13.675,45.788c11.53-4.088,22.766-12.067,36.316-11.892c-5.843,2.548-11.085,5.938-14.949,10.141
	c-16.28,17.706-4.318,22.012-23.245,38.175c-16.545,14.128-65.229,14.744-88.021,8.294c-23.659-6.697-31.27-9.108-30.068-26.521
	c0.68-9.849,3.879-19.547,2.537-29.651c-0.964-7.269-0.413-19.579-7.441-25.234c16.466-0.934,28.158,6.561,39.89,13.566
	c-6.744-19.219-2.533-39.568,12.211-56.142c6.549-7.36,23.246-7.116,23.492-17.394C422.934,535.184,411.783,520.866,403.486,521.378
	"/>
<path fill="#E9531E" stroke="#EC651E" stroke-width="7" d="M373.866,629.032c0.433,5.914-4.892,10.168-4.89,16.291
	c0.002,8.313,6.131,15.811,14.787,21.104c12.911,7.895,34.898,11.662,49.14,3.727c18.272-10.182,15.58-35.28,8.915-50.062
	c-3.918-8.689-9.827-17.263-18.464-23.521c-5.811-4.21-16.574-11.96-24.926-11.808c4.434,7.313,9.78,12.636,9.78,20.734
	c0,7.168-4.482,13.773-3.404,21.314c0.969,6.775-6.062,10.467-14.902,10.735c-16.947,0.512-15.29-9.567-15.405-8.258"/>
</svg>
