<?xml version="1.0" encoding="utf-8"?>
<!-- Generator: Adobe Illustrator 15.0.0, SVG Export Plug-In . SVG Version: 6.00 Build 0)  -->
<!DOCTYPE svg PUBLIC "-//W3C//DTD SVG 1.1//EN" "http://www.w3.org/Graphics/SVG/1.1/DTD/svg11.dtd">
<svg version="1.1" xmlns="http://www.w3.org/2000/svg" xmlns:xlink="http://www.w3.org/1999/xlink" x="0px" y="0px"
	 width="841.89px" height="1190.55px" viewBox="0 0 841.89 1190.55" enable-background="new 0 0 841.89 1190.55"
	 xml:space="preserve">
<g id="Panda">
	<polygon fill="#3C3229" stroke="#442A19" stroke-width="3" stroke-miterlimit="10" points="705.076,797.85 689.752,803.527 
		651.143,706.1 684.379,698.336 	"/>
	<polygon fill="#442A19" stroke="#442A19" stroke-width="3" stroke-miterlimit="10" points="212.426,816.822 236.483,825.734 
		282.268,712.803 230.695,698.986 	"/>
	<polygon fill="#482C16" stroke="#442A19" stroke-width="3" stroke-miterlimit="10" points="774.918,827.324 750.861,836.236 
		705.076,723.305 756.648,709.488 	"/>
	<polygon fill="#3C3229" stroke="#442A19" stroke-width="3" stroke-miterlimit="10" points="282.268,797.85 297.592,803.527 
		336.201,706.1 302.964,698.336 	"/>
	<path fill="#056734" stroke="#32AC64" stroke-width="3" stroke-miterlimit="10" d="M206.612,527.999
		c0.561-11.387-7.599-21.653-10.197-32.046c-2.419-9.678-3.156-23.622-4.194-33.608c-2.547-24.491,4.147-39.178,28.216-44.096
		c54.971-11.233,116.391-0.714,172.29-7.037c56.662-6.41,117.167-7.768,173.031-17.906c28.477-5.168,49.221-4.952,77.234-2.096
		c20.094,2.049,45.883-5.284,65.654,0.008c31.574,8.45,32.92,64.241,30.611,91.877c-3.516,42.062-14.158,85.964-31.066,124.456
		c-10.197,23.223-22.736,41.547-42.902,57.078c-32.25,24.84-67.277,11.672-105.508,10.316c-76.902-2.725-153.33,4.074-230.113,4.074
		c-51.978,0-98.171-13.234-113.353-70.969c-4.128-15.695-3.495-33.189-8.109-49.44c-4.402-15.504-5.569-26.463-3.984-38.72"/>
	<path fill="#487D4F" d="M245.454,601.469c88.127,0,175.712-0.498,263.313-6.115c42.648-2.732,83.83,0.439,125.988,2.033
		c16.6,0.629,62.352-13.17,73.957-5.66c10.314,6.674,13.182,33.168,14.293,44.338c4.805,48.332-41.371,49.422-78.012,51.111
		c-69.385,3.199-138.441-0.65-207.695,0.008c-49.04,0.465-117.45,23.701-163.281,3.682c-34.204-14.939-62.052-55.332-34.214-89.135
		c1.881,1.709,5.712,2.426,7.691,3.82"/>
	<path fill="#779773" d="M482.709,654.076c36.92-3.807,70.045-5.668,107.67-5.668c28.68-0.004,44.244-9.594,78.707-2.219
		c17.516,3.748,41.234,30.395,45.82,49.109c6.482,26.455-14.596,29.551-34.24,32.701c-44.117,7.07-82.613-3.795-127.887-3.795
		c-52.336,0-110.59,16.271-161.949,8.33c-23.746-3.672-47.919-7.779-71.243-12.197c-24.396-4.621-43.708,0.234-63.411-16.73
		c-12.497-10.76-27.903-27.078-16.513-42.512c8.358-11.301,28.912-13.039,41.56-11.609c18.787,2.123,36.017,6.545,56.597,6.861
		C386.126,657.092,434.549,659.043,482.709,654.076z"/>
	<path fill="#31AC67" stroke="#010202" stroke-miterlimit="10" d="M255.824,699.475"/>
	<path fill="#31AC67" stroke="#056734" stroke-width="3" stroke-miterlimit="10" d="M279.056,700.57
		c0-31.611,11.43-78.238,0.944-107.236c-13.694-37.871-34.811-68.054-75.94-78.467c-17.056-4.318-33.059,4.023-36.84,23.977
		c-3.986,21.032,12.854,29.454,25.141,42.403c23.664,24.941,27.03,58.589,30.973,86.753c3.222,23.018,8.456,44.162,1.331,62.277
		c33.222,11.064,75.376,3.24,110.048,6.537c34.489,3.277,72.871,3.457,108.578,2.088c43.764-1.68,85.629-7.662,129.697-8.164
		c37.455-0.426,77.926,0.893,114.998-2.447c27.027-2.436,55.416-2.414,83.152-4.029c-6.898-32.201-31.955-47.893-28.303-85.313
		c3.086-31.605,26.273-68.902,16.313-102.08c-14.227-47.378-74.191-12.043-87.229,17.898
		c-19.139,43.955,2.477,85.109,15.703,126.684c-194.232,10.35-331.308,19.332-407.628,18.824"/>
	<g opacity="0.69">
		<path fill="#31AC67" d="M590.744,491.953c1.328,0.502,2.336,1.244,3.248,2.059c0.451,0.41,0.873,0.844,1.258,1.305
			c0.398,0.45,0.736,0.946,0.992,1.504c0.514,1.114,0.721,2.459,1.346,3.49c0.607,1.044,1.502,1.872,2.523,2.604
			c1.037,0.72,1.992,1.502,2.797,2.396c0.844,0.867,1.691,1.73,2.359,2.728c1.303,2.021,2.363,4.226,2.779,6.914l-0.32,0.24
			c-2.469-1.145-4.293-2.773-5.873-4.586c-0.773-0.919-1.367-1.973-1.967-3.022c-0.635-1.022-1.123-2.156-1.527-3.354
			c-0.42-1.184-0.967-2.273-1.803-3.146c-0.816-0.886-2.051-1.458-2.98-2.26c-0.465-0.4-0.848-0.863-1.17-1.371
			c-0.336-0.497-0.635-1.022-0.904-1.57c-0.529-1.104-0.963-2.276-1.078-3.691L590.744,491.953z"/>
	</g>
	<g opacity="0.69">
		<path fill="#31AC67" d="M616.648,492.24c-1.02,1.59-2.266,2.848-3.572,4.005c-0.658,0.575-1.338,1.117-2.041,1.622
			c-0.693,0.52-1.432,0.975-2.225,1.346c-1.586,0.742-3.385,1.165-4.893,2.021c-1.521,0.84-2.842,1.979-4.076,3.25
			c-1.229,1.281-2.5,2.495-3.885,3.537c-1.357,1.086-2.713,2.176-4.191,3.08c-1.479,0.898-3.02,1.709-4.635,2.407
			c-1.617,0.696-3.268,1.34-5.088,1.73l-0.221-0.334c1.064-1.526,2.297-2.799,3.564-4.02c1.27-1.218,2.613-2.324,4.016-3.343
			c1.404-1.013,2.934-1.839,4.461-2.67c1.498-0.875,3.109-1.577,4.766-2.213c1.65-0.646,3.213-1.423,4.574-2.5
			c1.375-1.059,2.461-2.553,3.76-3.728c0.648-0.588,1.354-1.09,2.102-1.529c0.738-0.454,1.5-0.87,2.285-1.253
			c1.574-0.76,3.215-1.419,5.078-1.745L616.648,492.24z"/>
	</g>
	<g opacity="0.69">
		<path fill="none" d="M511.584,503.573"/>
	</g>
	<g opacity="0.69">
		<path fill="#31AC67" d="M345.013,503.453c1.327,0.502,2.335,1.244,3.247,2.059c0.452,0.41,0.874,0.844,1.259,1.305
			c0.398,0.45,0.736,0.946,0.992,1.504c0.514,1.114,0.721,2.459,1.346,3.49c0.606,1.044,1.501,1.872,2.522,2.604
			c1.038,0.72,1.992,1.502,2.798,2.396c0.843,0.867,1.69,1.73,2.359,2.728c1.303,2.021,2.361,4.226,2.777,6.914l-0.319,0.24
			c-2.469-1.145-4.292-2.773-5.872-4.586c-0.773-0.919-1.368-1.973-1.968-3.022c-0.636-1.022-1.122-2.156-1.526-3.354
			c-0.421-1.184-0.968-2.273-1.803-3.146c-0.817-0.886-2.053-1.458-2.98-2.26c-0.465-0.4-0.848-0.863-1.17-1.371
			c-0.336-0.497-0.636-1.022-0.904-1.57c-0.53-1.104-0.964-2.276-1.078-3.691L345.013,503.453z"/>
	</g>
	<g opacity="0.69">
		<path fill="#31AC67" d="M370.917,503.74c-1.021,1.59-2.266,2.848-3.573,4.005c-0.658,0.575-1.337,1.117-2.041,1.622
			c-0.694,0.52-1.431,0.975-2.224,1.346c-1.587,0.742-3.385,1.165-4.893,2.021c-1.521,0.84-2.843,1.979-4.077,3.25
			c-1.228,1.281-2.499,2.495-3.885,3.537c-1.357,1.086-2.712,2.176-4.189,3.08c-1.481,0.898-3.021,1.709-4.637,2.407
			c-1.616,0.696-3.267,1.34-5.087,1.73l-0.221-0.334c1.063-1.526,2.297-2.799,3.563-4.02c1.27-1.218,2.612-2.324,4.016-3.343
			c1.404-1.013,2.935-1.839,4.462-2.67c1.497-0.875,3.108-1.577,4.766-2.213c1.649-0.646,3.212-1.423,4.574-2.5
			c1.375-1.059,2.461-2.553,3.76-3.728c0.648-0.588,1.354-1.09,2.102-1.529c0.737-0.454,1.501-0.87,2.286-1.253
			c1.573-0.76,3.215-1.419,5.076-1.745L370.917,503.74z"/>
	</g>
	<g opacity="0.69">
		<path fill="#31AC67" d="M467.398,503.453c1.328,0.502,2.336,1.244,3.248,2.059c0.453,0.41,0.873,0.844,1.26,1.305
			c0.398,0.45,0.736,0.946,0.992,1.504c0.514,1.114,0.721,2.459,1.346,3.49c0.605,1.044,1.502,1.872,2.521,2.604
			c1.037,0.72,1.992,1.502,2.799,2.396c0.844,0.867,1.689,1.73,2.357,2.728c1.305,2.021,2.363,4.226,2.779,6.914l-0.32,0.24
			c-2.467-1.145-4.291-2.773-5.871-4.586c-0.773-0.919-1.369-1.973-1.967-3.022c-0.637-1.022-1.123-2.156-1.527-3.354
			c-0.422-1.184-0.969-2.273-1.803-3.146c-0.818-0.886-2.053-1.458-2.98-2.26c-0.465-0.4-0.848-0.863-1.17-1.371
			c-0.336-0.497-0.637-1.022-0.904-1.57c-0.529-1.104-0.965-2.276-1.076-3.691L467.398,503.453z"/>
	</g>
	<g opacity="0.69">
		<path fill="#31AC67" d="M493.303,503.74c-1.021,1.59-2.264,2.848-3.574,4.005c-0.656,0.575-1.336,1.117-2.039,1.622
			c-0.693,0.52-1.432,0.975-2.225,1.346c-1.586,0.742-3.383,1.165-4.893,2.021c-1.52,0.84-2.842,1.979-4.076,3.25
			c-1.227,1.281-2.498,2.495-3.885,3.537c-1.357,1.086-2.713,2.176-4.189,3.08c-1.482,0.898-3.021,1.709-4.637,2.407
			c-1.615,0.696-3.268,1.34-5.086,1.73l-0.223-0.334c1.064-1.526,2.297-2.799,3.564-4.02c1.27-1.218,2.611-2.324,4.016-3.343
			c1.406-1.013,2.936-1.839,4.461-2.67c1.498-0.875,3.109-1.577,4.768-2.213c1.648-0.646,3.211-1.423,4.574-2.5
			c1.375-1.059,2.461-2.553,3.758-3.728c0.65-0.588,1.355-1.09,2.102-1.529c0.738-0.454,1.502-0.87,2.287-1.253
			c1.572-0.76,3.215-1.419,5.076-1.745L493.303,503.74z"/>
	</g>
	<path fill="#F6F6F6" d="M447.633,425.87c-4.945-6.769-27.254-3.651-34.667-0.484c-15.744,6.728-25.479,16.281-29.514,33.331
		c-1.646,6.948,2.634,12.081,3.548,18.635c0.929,6.664,0.529,13.769,1.262,20.518c1.22,11.251,5.487,24.297,1.873,35.17
		c-1.803,5.423-2.654,7.38-4.915,12.214c-2.198,4.7-4.255,12.748-4.255,17.95c0,12.12,4.458,18.133,7.852,28.817
		c3.72,11.709-1.22,25.248,10.019,34.547c3.966,3.281,11.662,4.561,16.782,6.637c7.967,3.229,8.156,5.604,12.686,11.33
		c3.266,4.131,8.307,4.713,12.016,8.166c3.701,3.449,3.08,7.451,6.781,11.004c8.182,7.85,24.566,8.324,35.219,9.465
		c15.461,1.654,31.023,1.66,46.516,0.031c17.592-1.848,31.889-9.639,48.098-16.627c24.502-10.564,38.592-40.455,31.947-69.539
		c-1.52-6.648-6.014,6.479,0,0c5.445-5.865,0.219,30.584,0,0c-0.037-5.252-0.768-14.178-0.992-23.81
		c-0.221-9.44-2.479-24.086-8.65-31.333c-5.889-6.91-6.242-14.772-14.346-18.667c-15.41-7.407,4.025-9.428,4.744-23.387
		c0.668-12.998-8.498-29.413-13.836-41.151c-8.158-17.943-33.543-26.522-52.002-28.166c-20.371-1.813-40.775-3.984-61.352-3.984
		c-10.664,0-26.623-3.397-31.545,8.566c-1.051,0.163-2.197,0.221-3.268,0.101"/>
	<path fill="#010202" stroke="#010202" stroke-miterlimit="10" d="M376.41,437.781c-20.568,24.243-4.21,70.018,11.505,97.993
		c14.283,25.429,57.031,45.833,84.931,30.501c49.035-26.942-37.922-57.537-48.041-78.939c-9.717-20.55,14.117-29.855-4.338-46.05
		C407.904,430.261,389.62,434.191,376.41,437.781"/>
	<path fill="#010202" stroke="#010202" stroke-miterlimit="10" d="M589.584,432.781c20.568,24.243,4.209,70.018-11.504,97.993
		c-14.285,25.431-57.031,45.833-84.934,30.502c-49.035-26.944,37.924-57.538,48.043-78.94c9.717-20.55-14.117-29.855,4.338-46.05
		C558.09,425.261,576.375,429.191,589.584,432.781"/>
	<ellipse fill="#010202" stroke="#010202" stroke-miterlimit="10" cx="581.934" cy="308.249" rx="29.592" ry="31.633"/>
	<ellipse fill="#010202" stroke="#010202" stroke-miterlimit="10" cx="370.806" cy="308.249" rx="29.592" ry="31.633"/>
	
		<ellipse transform="matrix(-1 -3.348907e-004 3.348907e-004 -1 1148.512 616.6923)" fill="#F6F6F6" stroke="#010202" stroke-miterlimit="10" cx="574.308" cy="308.25" rx="23.331" ry="24.315"/>
	
		<ellipse transform="matrix(-1 -3.389438e-004 3.389438e-004 -1 761.0547 616.628)" fill="#F6F6F6" stroke="#010202" stroke-miterlimit="10" cx="380.58" cy="308.25" rx="24.487" ry="21.448"/>
	<path fill="#F6F6F6" stroke="#F6F6F6" d="M602.65,372.565c0,45.647-56.588,82.653-126.393,82.653
		c-69.802,0-126.391-37.006-126.391-82.653c0-36.357,21.27-81.795,71.149-92.857c12.748-2.827,41.037-8.163,55.244-8.163
		c15.031,0,51.297,5.346,64.086,12.013C584.74,306.697,602.65,336.747,602.65,372.565z"/>
	<path fill="#010202" stroke="#010202" stroke-miterlimit="10" d="M527.961,370.831c9.736,18.446,26.709,26.938,37.91,18.967
		c22.652-16.121,18.502-17.804,2.65-47.831c-7.861-14.894-31.057-23.844-37.91-18.967
		C519.412,330.972,518.225,352.386,527.961,370.831z"/>
	<ellipse fill="#EEEDED" stroke="#010202" stroke-miterlimit="10" cx="548.242" cy="356.4" rx="7.896" ry="10.835"/>
	<path fill="#010202" stroke="#010202" stroke-miterlimit="10" d="M444.938,369.947c-9.736,18.446-26.709,26.938-37.911,18.967
		c-23.293-16.576-16.752-21.116-2.649-47.831c9.019-17.085,32.212-23.021,37.91-18.967
		C453.486,330.087,454.674,351.501,444.938,369.947z"/>
	<ellipse fill="#EEEDED" stroke="#010202" stroke-miterlimit="10" cx="430.738" cy="356.4" rx="7.896" ry="10.835"/>
	<g>
		<path fill="#010202" d="M475.297,363.381c0,3.733,5.605,12.249,9.502,12.249c3.898,0,9.504-8.516,9.504-12.249"/>
		<path fill="#010202" d="M475.346,363.38c0.221,1.34,0.822,2.548,1.428,3.736c0.623,1.183,1.338,2.313,2.07,3.435
			c0.723,1.125,1.488,2.255,2.473,3.18c0.961,0.896,2.23,1.686,3.475,1.626c1.26-0.131,2.326-0.989,3.289-1.857
			c0.961-0.899,1.793-1.946,2.582-3.017c0.785-1.073,1.531-2.188,2.162-3.368c0.627-1.177,1.227-2.395,1.43-3.734h0.1
			c0.127,1.403-0.316,2.784-0.822,4.068c-0.539,1.283-1.201,2.514-2.004,3.656c-0.805,1.139-1.746,2.187-2.822,3.099
			c-0.539,0.458-1.127,0.867-1.773,1.192c-0.637,0.326-1.385,0.543-2.121,0.507c-0.775-0.041-1.422-0.361-2.029-0.706
			c-0.6-0.359-1.15-0.779-1.678-1.225c-1.055-0.888-2.063-1.852-2.934-2.937c-0.855-1.094-1.549-2.31-2.096-3.589
			c-0.525-1.272-0.967-2.664-0.826-4.065L475.346,363.38z"/>
	</g>
	<path fill="none" stroke="#010202" stroke-width="2" stroke-miterlimit="10" d="M462.863,409.13c0,0-1.602,5.24,1.604,7.74
		c3.203,2.5,11.211,2.26,14.229,2.26c6.039,0,6.105-10,6.105-10"/>
	<path fill="none" stroke="#010202" stroke-width="2" stroke-miterlimit="10" d="M511.945,409.133c0,0-0.275,4.24-3.479,6.74
		s-9.336,3.26-12.355,3.26c-6.037,0-11.313-10-11.313-10"/>
	
		<line fill="none" stroke="#010202" stroke-width="2" stroke-miterlimit="10" x1="484.799" y1="374.491" x2="484.799" y2="411.094"/>
	
		<ellipse transform="matrix(-0.7064 -0.7078 0.7078 -0.7064 259.1872 1376.62)" fill="#010202" stroke="#010202" stroke-miterlimit="10" cx="415.099" cy="634.556" rx="56.161" ry="44.795"/>
	<path fill="#010202" stroke="#010202" stroke-miterlimit="10" d="M548.773,602.557c-21.543,21.609-25.635,52.486-9.141,68.967
		c16.498,16.48,47.332,12.324,68.875-9.287c21.543-21.607,25.637-52.486,9.141-68.967
		C601.152,576.791,570.316,580.947,548.773,602.557z"/>
</g>
<g id="Ebene_1">
	<g>
		<path fill="#E84B1A" d="M244.843,908.388c-0.098-0.4-0.015-0.749-0.044-1.154"/>
	</g>
</g>
</svg>
