<?xml version="1.0" encoding="utf-8"?>
<!-- Generator: Adobe Illustrator 15.0.0, SVG Export Plug-In . SVG Version: 6.00 Build 0)  -->
<!DOCTYPE svg PUBLIC "-//W3C//DTD SVG 1.1//EN" "http://www.w3.org/Graphics/SVG/1.1/DTD/svg11.dtd">
<svg version="1.1" id="Ebene_1" xmlns="http://www.w3.org/2000/svg" xmlns:xlink="http://www.w3.org/1999/xlink" x="0px" y="0px"
	 width="841.89px" height="1190.55px" viewBox="0 0 841.89 1190.55" enable-background="new 0 0 841.89 1190.55"
	 xml:space="preserve">
<g>
	<path fill="#E84B1A" d="M289.938,689.909c-0.026,0.297,0.048,0.552-0.039,0.845"/>
	<path fill="#F7A526" stroke="#FFE245" stroke-width="10" d="M488.089,504.609c-7.336-0.374-17.196,10.104-17.061,14.787
		c0.218,7.522,14.982,7.344,20.772,12.731c13.037,12.129,16.76,27.023,10.797,41.092c10.373-5.129,20.712-10.613,35.271-9.932
		c-6.215,4.141-5.727,13.151-6.58,18.471c-1.186,7.396,1.643,14.494,2.243,21.703c1.063,12.745-5.666,14.51-26.586,19.411
		c-20.153,4.722-63.199,4.271-77.828-6.07c-16.735-11.83-6.159-14.981-20.554-27.941c-3.417-3.076-8.052-5.557-13.219-7.422
		c11.981-0.129,21.916,5.711,32.111,8.704c6.949-8.953-5.592-25.144-12.092-33.515c13.746-0.674,21.294,6.873,30.514,11.392
		c0.312-6.084-8.263-14.063-11.435-19.996c-3.896-7.288-4.144-14.652-0.896-22.025C439.098,513.4,465.538,504.224,488.089,504.609"
		/>
</g>
<path fill="#F7A526" stroke="#FFE245" stroke-width="10" d="M378.263,565.105c-5.217-0.231-12.228,6.258-12.131,9.157
	c0.154,4.659,10.653,4.549,14.771,7.885c9.271,7.513,11.918,16.736,7.677,25.449c7.377-3.176,14.728-6.572,25.08-6.149
	c-4.419,2.563-4.072,8.144-4.679,11.438c-0.843,4.58,1.168,8.977,1.596,13.441c0.756,7.893-4.029,8.986-18.905,12.021
	c-14.33,2.924-44.939,2.645-55.342-3.76c-11.9-7.327-4.379-9.278-14.615-17.305c-2.43-1.905-5.725-3.441-9.398-4.596
	c8.52-0.08,15.583,3.537,22.833,5.39c4.941-5.544-3.976-15.571-8.598-20.756c9.774-0.417,15.142,4.257,21.696,7.055
	c0.223-3.768-5.875-8.709-8.13-12.384c-2.771-4.514-2.946-9.074-0.638-13.64C343.427,570.55,362.228,564.866,378.263,565.105"/>
</svg>
