<?xml version="1.0" encoding="utf-8"?>
<!-- Generator: Adobe Illustrator 15.0.0, SVG Export Plug-In . SVG Version: 6.00 Build 0)  -->
<!DOCTYPE svg PUBLIC "-//W3C//DTD SVG 1.1//EN" "http://www.w3.org/Graphics/SVG/1.1/DTD/svg11.dtd">
<svg version="1.1" xmlns="http://www.w3.org/2000/svg" xmlns:xlink="http://www.w3.org/1999/xlink" x="0px" y="0px"
	 width="841.89px" height="1190.55px" viewBox="0 0 841.89 1190.55" enable-background="new 0 0 841.89 1190.55"
	 xml:space="preserve">
<g id="Ebene_1">
	<g>
		<path fill="#717070" stroke="#9E9D9C" stroke-width="3" d="M406.685,443.794c-7.332,0.347-12.869,15.232-11.285,20.923
			c1.67,6.001,12.367,7.071,17.399,8.028c5.935,1.13,11.133,2.076,14.593-3.415c4.251-6.743,5.91-21.295-2.043-26.443
			c-4.758-3.082-15.074-4.423-20.491-2.745c-2.25,0.699-5.371,2.13-5.179,4.844"/>
		<g>
			<g>
				<g>
					<path fill="#7C6B59" d="M408.727,474.545c0.621-0.631,27.119,6.46,31.99,7.748c9.831,2.599,24.808,2.892,33.824,7.317
						c-14.549,26.878-57.225,36.481-92.661,37.399c-22.09,0.572-68.258,1.711-103.239-27.297c-6.969-5.778-18.848-9.787-22.395-18.3
						c8.237-0.926,13.057-7.278,18.93-12.049c8.083-6.564,37.577-17.428,27.762-13.713c-21.835,8.262,16.678-11.538,51.832-11.283
						c14.714,0.107,29.617,1.339,42.09,9.547c4.604,3.03,7.718,5.872,11.088,10.253c2.403,3.124,5.988,11.065,8.104,12.031"/>
					<path fill="none" stroke="#010202" stroke-miterlimit="10" d="M410.462,474.545c0.622-0.631,27.119,6.46,31.991,7.748
						c9.831,2.599,24.807,2.892,33.823,7.317c-14.548,26.878-57.225,36.481-92.661,37.399c-22.09,0.572-68.258,1.711-103.239-27.297
						c-6.969-5.778-18.847-9.787-22.395-18.3c8.238-0.926,13.057-7.278,18.931-12.049c8.082-6.564,37.576-17.428,27.761-13.713
						c-21.834,8.262,16.678-11.538,51.833-11.283c14.713,0.107,29.616,1.339,42.089,9.547c4.604,3.03,7.718,5.872,11.089,10.253
						c2.404,3.124,5.987,11.065,8.104,12.031"/>
				</g>
			</g>
			<g>
				<g>
					<path fill="#2A3180" d="M410.576,453.239c1.775,23.863-50.011,40.636-68.067,36.489c-29.845-6.853-61.955-20.051-92.222-3.099
						c2.662-7.257,8.864-12.931,11.818-19.929c2.583-6.119,3.396-14.988,3.986-21.661c1.475-16.674-3.799-30.659,3.889-46.468
						c14.285-29.38,45.789-37.191,74.598-41.709c28.357-4.45,62.383,0.6,83.485,20.978c10.596,10.233,14.081,24.72,28.204,31.665
						c12.818,6.304,27.819,5.671,39.867-2.028c13.232-8.458,12.008-22.046,11.279-36.103c-25.936-1.354-56.693-1.47-69.091-29.294
						c-7.881-17.689,9.6-20.032,24.655-19.13c17.292,1.034,28.076,9.189,39.895,20.633c15.777-13.928,28.278-26.5,52.097-25.051
						c0.529,9.02,2.55,18.632-0.978,27.193c-3.479,8.448-13.376,12.586-15.662,19.134c-2.386,6.827,2.594,15.548,3.954,21.867
						c1.589,7.37,2.051,14.937,1.636,22.758c-1.114,21.107-18.175,41.197-34.295,53.98c-10.581,8.394-24.723,31.523-39.581,33.301
						c-4.858,0.581-8.883-3.179-13.052-5.059c-9.882-4.455-19.641-5.849-30.581-6.828c-9.27-0.827-19.711,5.727-20.489-4.92
						c-0.421-5.732,3.9-19.43,6.52-23.076"/>
					<path fill="none" stroke="#010202" stroke-miterlimit="10" d="M410.576,453.239c1.775,23.863-50.011,40.636-68.067,36.489
						c-29.845-6.853-61.955-20.051-92.222-3.099c2.662-7.257,8.864-12.931,11.818-19.929c2.583-6.119,3.396-14.988,3.986-21.661
						c1.475-16.674-3.799-30.659,3.889-46.468c14.285-29.38,45.789-37.191,74.598-41.709c28.357-4.45,62.383,0.6,83.485,20.978
						c10.596,10.233,14.081,24.72,28.204,31.665c12.818,6.304,27.819,5.671,39.867-2.028c13.232-8.458,12.008-22.046,11.279-36.103
						c-25.936-1.354-56.693-1.47-69.091-29.294c-7.881-17.689,9.6-20.032,24.655-19.13c17.292,1.034,28.076,9.189,39.895,20.633
						c15.777-13.928,28.278-26.5,52.097-25.051c0.529,9.02,2.55,18.632-0.978,27.193c-3.479,8.448-13.376,12.586-15.662,19.134
						c-2.386,6.827,2.594,15.548,3.954,21.867c1.589,7.37,2.051,14.937,1.636,22.758c-1.114,21.107-18.175,41.197-34.295,53.98
						c-10.581,8.394-24.723,31.523-39.581,33.301c-4.858,0.581-8.883-3.179-13.052-5.059c-9.882-4.455-19.641-5.849-30.581-6.828
						c-9.27-0.827-19.711,5.727-20.489-4.92c-0.421-5.732,3.9-19.43,6.52-23.076"/>
				</g>
			</g>
			<path fill="none" stroke="#302D7F" stroke-miterlimit="10" d="M422.699,520.664c-9.437-1.943-23.251-11.5-30.093-17.999
				c-8.982-8.529-9.07-19.525-9.07-31.203"/>
			<path fill="none" stroke="#302D7F" stroke-miterlimit="10" d="M350.898,470.551c-2.313,11.706-7.278,22.312-2.591,34.417
				c1.6,4.132,4.703,10.143,7.488,13.646c3.598,4.526,7.985,5.044,11.888,8.428"/>
			<path fill="none" stroke="#302D7F" stroke-miterlimit="10" d="M319.194,468.729c-2.007,10.861-4.716,23.509-0.256,34.624
				c3.283,8.182,8.282,13.594,12.994,20.162"/>
			<path fill="none" stroke="#302D7F" stroke-miterlimit="10" d="M292.152,472.373c-5.712,10.196-11.258,29.252,1.564,36.725"/>
		</g>
		<path fill="none" stroke="#302D7F" stroke-miterlimit="10" d="M590.544,497.885c0.312,0,0.622,0,0.933,0"/>
		<path opacity="0.54" fill="#1B1935" enable-background="new    " d="M430.681,445.492c-8.561-17.125,39.363-6.896,45.596-8.724
			c-6.246,7.974,1.164,17.682-6.224,25.172c-4.701,4.765-21.09,9.844-26.317,4.508"/>
		<path fill="#F6F6F6" stroke="#DADADA" d="M393.161,457.652c0,5.033-4.311,9.112-9.626,9.112c-5.316,0-9.626-4.079-9.626-9.112
			c0-2.221,0.84-4.255,2.235-5.837c1.766-2,4.422-3.274,7.392-3.274c3.321,0,6.252,1.592,7.982,4.017
			C392.555,454.012,393.161,455.765,393.161,457.652z"/>
		<path fill="#E30D18" stroke="#E30D18" stroke-width="3" d="M349.461,460.15"/>
		<line fill="none" x1="371.715" y1="455.852" x2="386.032" y2="456.299"/>
		<line fill="none" x1="370.479" y1="451.965" x2="384.796" y2="452.412"/>
		<path fill="none" stroke="#9E9D9C" d="M354.851,453.978"/>
		<path fill="none" stroke="#9E9D9C" d="M371.791,451.519"/>
		<path fill="#F6F6F6" stroke="#DADADA" d="M289.392,455.613c0,5.032-4.309,9.112-9.626,9.112c-5.315,0-9.625-4.08-9.625-9.112
			c0-2.221,0.84-4.256,2.235-5.837c1.766-2.001,4.421-3.275,7.391-3.275c3.323,0,6.253,1.594,7.982,4.017
			C288.786,451.972,289.392,453.725,289.392,455.613z"/>
		<line fill="none" x1="287.902" y1="445.92" x2="302.219" y2="446.368"/>
		<line fill="none" x1="302.219" y1="446.368" x2="316.535" y2="446.814"/>
		<path fill="none" stroke="#9E9D9C" d="M286.59,448.379"/>
		<path fill="none" stroke="#9E9D9C" d="M303.529,445.92"/>
		<ellipse fill="#29265B" stroke="#9E9D9C" stroke-width="3" cx="383.534" cy="457.653" rx="3.945" ry="2.547"/>
		<ellipse fill="#29265B" stroke="#9E9D9C" stroke-width="3" cx="279.766" cy="455.613" rx="3.946" ry="2.547"/>
		<ellipse fill="#2A3180" cx="279.766" cy="448.378" rx="8.063" ry="3.8"/>
		<ellipse fill="#2A3180" cx="383.534" cy="450.301" rx="8.063" ry="3.8"/>
		<ellipse fill="#FFFFFF" cx="230.316" cy="416.56" rx="0.609" ry="0.744"/>
		<ellipse fill="#FFFFFF" cx="317.144" cy="474.356" rx="0.609" ry="0.744"/>
		<ellipse fill="#FFFFFF" cx="324.229" cy="475.845" rx="0.609" ry="0.744"/>
		<path fill="none" stroke="#585857" stroke-width="3" d="M409.534,450.045c0.017,4.882,2.748,7.698,7.007,10.119"/>
		<g>
			<g>
				<path fill="#E1EEFA" d="M342.998,364.811c0.733-11.123,0.743-18.523-10.073-25.917c-11.161-7.629-17.105-2.635-21.153,8.838
					c-5.863-3.713-7.614-9.461-15.426-2.923c-2.629-4.783-8.178-0.458-12.608,0.219c-1.426-14.079,14.212-24.488,26.366-25.753
					c15.534-1.617,26.604,4.574,36.35,15.084c4.946-10.891,17.522-18.468,30.153-15.803c5.797,1.224,29.181,15.354,24.938,23.948
					c-2.446,4.953-28.496-5.269-32.96-5.414c-1.962-0.064-6.634,2.364-8.177,2.673c-2.798,0.558-6.945-0.81-9.208,0.917
					c-4.677,3.566-2.903,11.746,0.938,13.416"/>
				<path fill="#D7DCE9" d="M343.063,365.208c0.12-2.399,0.232-4.802,0.164-7.2c-0.074-2.392-0.333-4.792-1.043-7.073
					c-0.702-2.281-1.89-4.399-3.442-6.223c-1.551-1.831-3.416-3.388-5.401-4.766c-1.986-1.371-4.103-2.6-6.384-3.316
					c-1.138-0.354-2.316-0.566-3.485-0.542c-1.166,0.018-2.316,0.287-3.35,0.798c-2.087,1.031-3.639,2.917-4.843,4.93
					c-1.21,2.032-2.118,4.247-2.9,6.497l-0.234,0.674l-0.62-0.386c-1.323-0.825-2.519-1.813-3.664-2.793
					c-1.146-0.968-2.264-1.974-3.513-2.54c-0.622-0.28-1.27-0.425-1.928-0.402c-0.656,0.02-1.321,0.198-1.963,0.473
					c-1.287,0.557-2.478,1.436-3.598,2.38l-0.647,0.545l-0.408-0.738c-0.495-0.896-1.212-1.561-2.136-1.751
					c-0.925-0.208-2.005-0.017-3.059,0.282c-1.062,0.304-2.124,0.722-3.218,1.12c-1.097,0.394-2.223,0.8-3.47,0.997l-0.802,0.126
					l-0.087-0.798c-0.375-3.47,0.312-7.034,1.846-10.163c1.525-3.144,3.801-5.869,6.422-8.146c2.629-2.279,5.614-4.136,8.796-5.564
					c3.185-1.419,6.577-2.436,10.105-2.803c3.454-0.358,6.982-0.359,10.452,0.12c3.472,0.474,6.879,1.438,10.075,2.85
					c3.201,1.404,6.18,3.251,8.902,5.375c2.729,2.121,5.222,4.499,7.54,7.008l-1.461,0.23c2.51-5.482,6.841-10.09,12.125-13.097
					c2.645-1.503,5.537-2.601,8.545-3.19c3.006-0.592,6.125-0.665,9.155-0.177c0.378,0.062,0.755,0.129,1.132,0.208
					c0.181,0.035,0.39,0.082,0.59,0.136c0.195,0.053,0.386,0.11,0.573,0.172c0.745,0.245,1.45,0.534,2.144,0.841
					c1.384,0.615,2.715,1.305,4.021,2.032c2.61,1.46,5.123,3.07,7.525,4.834c2.392,1.777,4.69,3.694,6.741,5.881
					c1.021,1.096,1.98,2.262,2.792,3.549c0.8,1.285,1.479,2.71,1.672,4.304c0.092,0.791,0.04,1.622-0.201,2.407
					c-0.061,0.195-0.129,0.388-0.211,0.577c-0.04,0.094-0.086,0.184-0.129,0.277l-0.078,0.143l-0.115,0.178
					c-0.296,0.411-0.709,0.689-1.11,0.872c-0.816,0.358-1.624,0.442-2.406,0.484c-0.785,0.032-1.553-0.007-2.312-0.077
					c-3.025-0.301-5.934-0.995-8.821-1.73c-2.885-0.75-5.734-1.59-8.577-2.442l-4.258-1.274c-1.42-0.42-2.839-0.842-4.263-1.175
					c-0.71-0.148-1.437-0.335-2.065-0.25c-0.68,0.086-1.384,0.303-2.075,0.532c-1.387,0.468-2.744,1.049-4.141,1.576
					c-0.352,0.129-0.703,0.257-1.077,0.364c-0.385,0.11-0.775,0.156-1.156,0.188c-0.768,0.056-1.521,0.023-2.266-0.019
					c-1.483-0.081-2.969-0.25-4.387,0.007c-1.434,0.209-2.548,1.269-3.315,2.455c-0.764,1.208-1.128,2.64-1.177,4.069
					c-0.045,1.434,0.216,2.883,0.784,4.215c0.57,1.312,1.47,2.583,2.83,3.216c-1.38-0.595-2.329-1.854-2.944-3.167
					c-0.615-1.333-0.923-2.798-0.919-4.268c0.003-1.467,0.352-2.957,1.124-4.242c0.387-0.642,0.874-1.223,1.459-1.717
					c0.563-0.509,1.322-0.836,2.068-0.986c1.515-0.302,3.028-0.153,4.502-0.105c0.738,0.026,1.474,0.043,2.188-0.025
					c0.356-0.037,0.708-0.085,1.033-0.188c0.339-0.103,0.681-0.234,1.021-0.369c1.363-0.545,2.718-1.158,4.131-1.668
					c0.709-0.25,1.424-0.493,2.217-0.612c0.1-0.013,0.2-0.024,0.305-0.031l0.165-0.007l0.152,0.002
					c0.207,0.008,0.402,0.027,0.595,0.054c0.384,0.051,0.757,0.122,1.126,0.2c2.935,0.646,5.766,1.514,8.621,2.321
					c2.85,0.816,5.7,1.618,8.569,2.325c2.865,0.694,5.763,1.342,8.657,1.59c0.721,0.058,1.442,0.084,2.142,0.046
					c0.695-0.039,1.392-0.145,1.934-0.395c0.266-0.125,0.477-0.287,0.607-0.475l0.034-0.051l0.051-0.099
					c0.032-0.073,0.069-0.145,0.098-0.219c0.063-0.147,0.115-0.298,0.161-0.45c0.178-0.61,0.214-1.258,0.13-1.906
					c-0.171-1.302-0.775-2.577-1.532-3.75c-0.764-1.177-1.686-2.274-2.678-3.311c-1.992-2.072-4.255-3.916-6.614-5.622
					c-2.361-1.708-4.83-3.284-7.386-4.695c-1.277-0.703-2.577-1.369-3.9-1.952c-0.66-0.29-1.329-0.558-1.991-0.773
					c-0.165-0.054-0.332-0.102-0.493-0.145c-0.158-0.042-0.312-0.077-0.494-0.112c-0.353-0.073-0.705-0.133-1.06-0.189
					c-2.838-0.445-5.755-0.365-8.57,0.201c-2.817,0.564-5.535,1.607-8.021,3.034c-4.97,2.854-9.04,7.229-11.363,12.369l-0.547,1.211
					l-0.915-0.981c-2.278-2.445-4.713-4.747-7.354-6.78c-2.643-2.029-5.485-3.8-8.525-5.154c-3.038-1.357-6.271-2.287-9.579-2.752
					c-3.311-0.47-6.682-0.487-10.034-0.152c-3.287,0.326-6.537,1.277-9.58,2.62c-3.043,1.352-5.904,3.117-8.409,5.27
					c-2.496,2.15-4.644,4.71-6.067,7.619c-1.435,2.897-2.071,6.15-1.742,9.346l-0.889-0.672c1.043-0.162,2.113-0.512,3.189-0.889
					c1.079-0.376,2.172-0.793,3.337-1.111c1.155-0.304,2.436-0.564,3.788-0.256c0.667,0.154,1.313,0.483,1.823,0.932
					c0.513,0.447,0.896,0.984,1.195,1.533l-1.054-0.192c1.192-0.977,2.465-1.909,3.975-2.544c0.754-0.311,1.584-0.533,2.451-0.548
					c0.867-0.021,1.738,0.192,2.492,0.544c1.514,0.723,2.64,1.802,3.778,2.778c1.128,0.991,2.255,1.943,3.49,2.733l-0.854,0.288
					c0.829-2.286,1.787-4.546,3.078-6.657c0.649-1.052,1.385-2.065,2.259-2.975c0.871-0.909,1.894-1.712,3.064-2.271
					c1.167-0.56,2.476-0.848,3.767-0.848c1.295-0.001,2.562,0.258,3.757,0.656c2.395,0.809,4.531,2.118,6.523,3.552
					c1.988,1.442,3.863,3.071,5.413,4.98c1.554,1.901,2.727,4.105,3.393,6.444c0.675,2.339,0.886,4.77,0.885,7.174
					C343.434,360.414,343.253,362.812,343.063,365.208z"/>
			</g>
		</g>
	</g>
	<g>
		<g>
			<g>
				<polygon fill="#DADADA" points="529.933,572.387 259.55,572.268 258.619,519.324 529.002,519.442 				"/>
			</g>
		</g>
		<path fill="none" stroke="#010202" stroke-miterlimit="10" d="M364.482,579.113"/>
		<path fill="none" stroke="#010202" stroke-miterlimit="10" d="M268.39,576.379"/>
		<path fill="none" stroke="#010202" stroke-miterlimit="10" d="M506.171,585.49"/>
		<path fill="none" stroke="#010202" stroke-miterlimit="10" d="M460.479,588.224"/>
		<ellipse fill="#F6F6F6" cx="384.018" cy="545.856" rx="9.323" ry="6.833"/>
		<ellipse fill="#F6F6F6" cx="491.971" cy="546.258" rx="14.2" ry="12.856"/>
		<ellipse fill="#F6F6F6" cx="443.694" cy="545.856" rx="9.325" ry="6.833"/>
		<ellipse fill="#F6F6F6" cx="415.721" cy="546.257" rx="9.324" ry="6.834"/>
		<g>
			<g>
				<polygon fill="#EEEDED" points="529.466,778.969 259.084,778.536 259.084,586.084 529.466,586.516 				"/>
			</g>
		</g>
		<path fill="#9E9D9C" d="M343.92,553.254c0,2.958-2.454,5.358-5.482,5.358h-59.902c-3.028,0-5.483-2.4-5.483-5.358v-14.798
			c0-2.958,2.455-5.357,5.483-5.357h59.901c3.028,0,5.483,2.399,5.483,5.357V553.254L343.92,553.254z"/>
		<path fill="none" stroke="#010202" stroke-miterlimit="10" d="M526.685,579.113"/>
		<path fill="none" stroke="#010202" stroke-miterlimit="10" d="M260.93,576.379"/>
		<path fill="none" stroke="#010202" stroke-miterlimit="10" d="M529.447,585.49"/>
		<path fill="none" stroke="#010202" stroke-miterlimit="10" d="M260.93,585.49"/>
		<ellipse fill="#717070" stroke="#010202" stroke-miterlimit="10" cx="419.451" cy="687.538" rx="92.297" ry="83.825"/>
		<ellipse fill="#F6F6F6" cx="284.033" cy="651.092" rx="9.324" ry="6.834"/>
		<ellipse fill="#F6F6F6" cx="284.033" cy="681.961" rx="9.324" ry="6.833"/>
		<g>
			<g>
				<polygon fill="#878787" points="529.465,587.079 259.084,587.044 259.084,571.145 529.465,571.181 				"/>
			</g>
		</g>
		<ellipse fill="#89A5D6" stroke="#010202" stroke-miterlimit="10" cx="419.451" cy="687.538" rx="79.708" ry="74.714"/>
		<path fill="none" d="M389.611,681.16c4.381-8.951,16.052-14.094,23.359-20.753c5.948-5.421,13.599-13.386,18.603-17.515"/>
		<path fill="none" d="M395.206,705.762c14.556-17.531,40.128-36.754,61.544-46.469"/>
		<path fill="none" d="M417.586,713.05c16.671-8.95,31.401-23.621,47.556-32.801"/>
		<path fill="none" d="M370.03,682.982c11.559-0.439,26.469-11.716,36.577-17.084c5.518-2.932,10.431-7.011,15.846-10.072
			c3.007-1.701,15.135-7.84,12.851-6.558"/>
		<path fill="none" stroke="#3BA9E0" d="M443.694,661.115c-6.9,1.311-14.91,8.305-20.519,12.506
			c-6.604,4.945-13.184,10.43-19.341,15.721c-4.482,3.856-7.527,9.709-13.291,11.862"/>
		<g>
			<path fill="#3BA9E0" d="M370.803,735.467c0.524-1.393,1.079-2.677,1.675-3.984c0.595-1.299,1.225-2.58,1.892-3.844
				c1.338-2.528,2.82-4.994,4.522-7.343c1.708-2.341,3.63-4.582,5.949-6.502c2.315-1.897,5.089-3.524,8.342-3.995
				c1.598-0.219,3.151-0.147,4.646,0.038c1.496,0.188,2.943,0.501,4.359,0.874c2.827,0.75,5.531,1.732,8.192,2.776
				c5.313,2.099,10.447,4.47,15.638,6.666c5.188,2.183,10.426,4.282,15.864,5.56c2.713,0.621,5.489,1.025,8.235,0.882
				c1.363-0.067,2.732-0.328,4.096-0.628c1.357-0.309,2.695-0.706,4.005-1.184c5.245-1.906,9.924-5.211,13.722-9.278
				c1.904-2.034,3.606-4.253,5.105-6.601c1.488-2.349,2.815-4.813,3.82-7.405c-0.926,2.623-2.177,5.131-3.601,7.536
				c-1.434,2.402-3.078,4.689-4.941,6.803c-3.712,4.228-8.38,7.75-13.731,9.881c-1.334,0.531-2.705,0.984-4.1,1.346
				c-1.394,0.35-2.813,0.665-4.285,0.783c-2.926,0.239-5.834-0.105-8.657-0.662c-5.652-1.153-11.029-3.133-16.322-5.178
				c-5.29-2.055-10.498-4.271-15.772-6.177c-2.636-0.944-5.291-1.817-7.966-2.44c-1.335-0.311-2.674-0.557-3.997-0.683
				c-1.319-0.126-2.63-0.134-3.841,0.07c-0.151,0.024-0.301,0.056-0.446,0.085l-0.2,0.047l-0.248,0.064
				c-0.271,0.074-0.585,0.175-0.872,0.279c-0.584,0.213-1.155,0.477-1.712,0.777c-1.114,0.605-2.162,1.369-3.143,2.229
				c-1.965,1.725-3.664,3.813-5.176,6.031c-1.513,2.225-2.842,4.591-4.034,7.027c-0.598,1.219-1.158,2.453-1.686,3.702
				c-0.521,1.241-1.027,2.53-1.444,3.753L370.803,735.467z"/>
		</g>
		<g>
			<path fill="#3BA9E0" d="M353.919,675.951c0.524-1.393,1.08-2.676,1.676-3.984c0.595-1.299,1.223-2.58,1.893-3.844
				c1.336-2.528,2.818-4.994,4.521-7.343c1.707-2.341,3.629-4.581,5.95-6.503c2.313-1.897,5.087-3.523,8.341-3.993
				c1.598-0.218,3.151-0.148,4.646,0.036c1.497,0.19,2.944,0.503,4.359,0.875c2.827,0.752,5.531,1.734,8.192,2.776
				c5.312,2.101,10.447,4.47,15.639,6.665c5.188,2.185,10.425,4.284,15.863,5.562c2.713,0.62,5.49,1.025,8.234,0.882
				c1.362-0.068,2.732-0.328,4.096-0.629c1.359-0.309,2.695-0.706,4.005-1.184c5.245-1.908,9.925-5.21,13.723-9.278
				c1.903-2.034,3.606-4.252,5.104-6.599c1.49-2.351,2.816-4.813,3.821-7.408c-0.925,2.623-2.18,5.133-3.603,7.537
				c-1.434,2.402-3.076,4.69-4.94,6.803c-3.712,4.228-8.379,7.752-13.731,9.88c-1.333,0.533-2.703,0.985-4.1,1.348
				c-1.392,0.352-2.813,0.664-4.283,0.783c-2.926,0.241-5.835-0.105-8.658-0.661c-5.654-1.154-11.029-3.134-16.322-5.178
				c-5.293-2.056-10.499-4.272-15.774-6.178c-2.635-0.945-5.291-1.818-7.964-2.441c-1.335-0.31-2.675-0.556-3.997-0.683
				c-1.32-0.126-2.63-0.133-3.841,0.071c-0.151,0.023-0.301,0.056-0.447,0.084l-0.2,0.047l-0.248,0.063
				c-0.272,0.075-0.585,0.176-0.871,0.28c-0.585,0.214-1.156,0.477-1.712,0.779c-1.114,0.605-2.162,1.369-3.144,2.228
				c-1.965,1.727-3.663,3.814-5.176,6.032c-1.513,2.223-2.842,4.59-4.034,7.025c-0.598,1.219-1.157,2.455-1.685,3.704
				c-0.521,1.241-1.028,2.529-1.445,3.753L353.919,675.951z"/>
		</g>
		<g>
			<path fill="#3BA9E0" d="M475.455,672.135c-0.524,1.394-1.079,2.679-1.675,3.987c-0.595,1.298-1.226,2.58-1.894,3.845
				c-1.337,2.528-2.82,4.996-4.523,7.344c-1.707,2.342-3.631,4.584-5.953,6.504c-1.162,0.957-2.427,1.828-3.819,2.531
				c-0.696,0.35-1.421,0.659-2.176,0.908c-0.38,0.124-0.751,0.231-1.155,0.33l-0.26,0.062l-0.301,0.063
				c-0.208,0.045-0.392,0.072-0.588,0.109c-3.102,0.496-6.129,0.168-9.004-0.396c-2.883-0.582-5.648-1.438-8.354-2.394
				c-5.41-1.929-10.584-4.266-15.76-6.53c-2.589-1.136-5.174-2.262-7.782-3.313c-2.607-1.049-5.24-2.034-7.921-2.814
				c-2.674-0.771-5.425-1.371-8.155-1.33c-0.687,0.015-1.344,0.074-2.028,0.193c-0.688,0.113-1.37,0.246-2.05,0.399
				c-1.359,0.31-2.696,0.706-4.006,1.184c-5.249,1.907-9.93,5.21-13.729,9.277c-1.904,2.036-3.608,4.255-5.107,6.601
				c-1.491,2.352-2.816,4.815-3.822,7.41c0.926-2.624,2.178-5.133,3.602-7.539c1.434-2.402,3.08-4.69,4.943-6.806
				c3.715-4.228,8.384-7.751,13.737-9.879c1.334-0.532,2.704-0.983,4.102-1.345c0.696-0.182,1.404-0.34,2.112-0.478
				c0.708-0.146,1.465-0.238,2.198-0.274c2.961-0.129,5.84,0.425,8.62,1.135c2.785,0.722,5.492,1.646,8.165,2.63
				c2.673,0.987,5.309,2.042,7.935,3.103c5.249,2.115,10.466,4.282,15.787,6.002c2.656,0.854,5.342,1.592,8.04,2.055
				c2.687,0.451,5.417,0.629,7.923,0.143c2.471-0.457,4.699-1.781,6.665-3.504c1.967-1.726,3.665-3.814,5.179-6.031
				c1.513-2.225,2.844-4.594,4.036-7.029c0.598-1.218,1.158-2.455,1.685-3.705c0.522-1.24,1.028-2.528,1.446-3.753L475.455,672.135z
				"/>
		</g>
	</g>
</g>
<g id="Ebene_2">
</g>
</svg>
