<?xml version="1.0" encoding="utf-8"?>
<!-- Generator: Adobe Illustrator 15.0.0, SVG Export Plug-In . SVG Version: 6.00 Build 0)  -->
<!DOCTYPE svg PUBLIC "-//W3C//DTD SVG 1.1//EN" "http://www.w3.org/Graphics/SVG/1.1/DTD/svg11.dtd">
<svg version="1.1" id="Ebene_1" xmlns="http://www.w3.org/2000/svg" xmlns:xlink="http://www.w3.org/1999/xlink" x="0px" y="0px"
	 width="841.89px" height="1190.55px" viewBox="0 0 841.89 1190.55" enable-background="new 0 0 841.89 1190.55"
	 xml:space="preserve">
<g>
	<path fill="#717070" stroke="#9E9D9C" stroke-width="3" d="M444.648,366.165c0.424-6.078-6.408-9.284-11.332-10.847
		c-11.855-3.759-34.434-0.754-44.848,6.146c-17.408,11.531-13.775,44.125-4.471,59.23c7.572,12.298,18.947,10.179,31.938,7.649
		c11.014-2.145,34.424-4.54,38.08-17.982c3.467-12.747-8.65-46.086-24.699-46.865"/>
	<g>
		<g>
			<g>
				<path fill="#7C6B59" d="M408.816,436.08c4.631-2.164,12.477-19.951,17.736-26.946c7.377-9.814,14.193-16.178,24.27-22.965
					c27.295-18.385,59.913-21.146,92.114-21.385c76.94-0.571,161.229,43.777,113.442,25.272
					c-21.482-8.319,43.068,16.014,60.758,30.716c12.855,10.685,23.401,24.913,41.431,26.987
					c-7.763,19.067-33.761,28.048-49.013,40.989c-76.561,64.975-177.604,62.422-225.95,61.141
					c-77.556-2.056-170.956-23.565-202.796-83.768c19.732-9.912,52.51-10.567,74.025-16.39
					c10.662-2.886,68.654-18.767,70.016-17.354"/>
				<path fill="none" stroke="#010202" stroke-miterlimit="10" d="M405.018,436.08c4.631-2.164,12.475-19.951,17.736-26.946
					c7.377-9.814,14.193-16.178,24.27-22.965c27.295-18.385,59.913-21.146,92.114-21.385c76.94-0.571,161.229,43.777,113.442,25.272
					c-21.482-8.319,43.067,16.014,60.758,30.716c12.854,10.685,23.401,24.913,41.431,26.987
					c-7.763,19.067-33.761,28.048-49.013,40.989c-76.561,64.975-177.604,62.422-225.95,61.141
					c-77.556-2.056-170.956-23.565-202.796-83.768c19.732-9.912,52.51-10.567,74.025-16.39
					c10.662-2.886,68.654-18.767,70.016-17.354"/>
			</g>
		</g>
		<g>
			<g>
				<path fill="#2A3180" d="M416.719,392.813c5.73,8.166,15.189,38.846,14.27,51.688c-1.705,23.846-24.557,9.167-44.844,11.021
					c-23.943,2.189-45.303,5.313-66.932,15.292c-9.125,4.21-17.932,12.631-28.564,11.33c-32.518-3.982-63.469-55.787-86.629-74.588
					c-35.277-28.635-72.617-73.634-75.057-120.91c-0.906-17.515,0.102-34.465,3.58-50.973c2.977-14.152,13.875-33.687,8.654-48.979
					c-5.004-14.664-26.662-23.936-34.277-42.857c-7.721-19.174-3.299-40.706-2.141-60.909c52.129-3.246,79.49,24.913,114.02,56.112
					c25.865-25.633,49.467-43.899,87.313-46.216c32.951-2.018,71.211,3.228,53.961,42.85
					c-27.133,62.323-94.451,62.582-151.213,65.615c-1.594,31.484-4.273,61.921,24.686,80.863
					c26.369,17.246,59.201,18.664,87.254,4.543c30.91-15.557,38.539-48.004,61.729-70.923
					c46.186-45.643,120.651-56.953,182.715-46.99c63.053,10.122,132,27.619,163.266,93.424
					c16.825,35.412,5.284,66.733,8.512,104.082c1.292,14.946,3.07,34.812,8.724,48.518c6.465,15.674,20.038,28.383,25.866,44.637
					c-66.242-37.97-136.521-8.407-201.838,6.943c-39.52,9.288-152.855-28.28-148.973-81.731"/>
				<path fill="none" stroke="#010202" stroke-miterlimit="10" d="M416.719,392.813c5.73,8.166,15.189,38.846,14.27,51.688
					c-1.705,23.846-24.557,9.167-44.844,11.021c-23.943,2.189-45.303,5.313-66.932,15.292c-9.125,4.21-17.932,12.631-28.564,11.33
					c-32.518-3.982-63.469-55.787-86.629-74.588c-35.277-28.635-72.617-73.634-75.057-120.91
					c-0.906-17.515,0.102-34.465,3.58-50.973c2.977-14.152,13.875-33.687,8.654-48.979c-5.004-14.664-26.662-23.936-34.277-42.857
					c-7.721-19.174-3.299-40.706-2.141-60.909c52.129-3.246,79.49,24.913,114.02,56.112c25.865-25.633,49.467-43.899,87.313-46.216
					c32.951-2.018,71.211,3.228,53.961,42.85c-27.133,62.323-94.451,62.582-151.213,65.615
					c-1.594,31.484-4.273,61.921,24.686,80.863c26.369,17.246,59.201,18.664,87.254,4.543c30.91-15.557,38.539-48.004,61.729-70.923
					c46.186-45.643,120.651-56.953,182.715-46.99c63.053,10.122,132,27.619,163.266,93.424
					c16.825,35.412,5.284,66.733,8.512,104.082c1.292,14.946,3.07,34.812,8.724,48.518c6.465,15.674,20.038,28.383,25.866,44.637
					c-66.242-37.97-136.521-8.407-201.838,6.943c-39.52,9.288-152.855-28.28-148.973-81.731"/>
			</g>
		</g>
		<path fill="none" stroke="#302D7F" stroke-miterlimit="10" d="M479.98,425.469c0,26.157-0.195,50.789-19.854,69.893
			c-14.975,14.554-45.207,35.961-65.857,40.313"/>
		<path fill="none" stroke="#302D7F" stroke-miterlimit="10" d="M514.676,549.961c8.539-7.581,18.142-8.74,26.018-18.879
			c6.095-7.845,12.886-21.309,16.387-30.563c10.258-27.114-0.606-50.869-5.67-77.09"/>
		<path fill="none" stroke="#302D7F" stroke-miterlimit="10" d="M592.919,542.058c10.314-14.712,21.254-26.832,28.439-45.159
			c9.761-24.895,3.832-53.225-0.56-77.551"/>
		<path fill="none" stroke="#302D7F" stroke-miterlimit="10" d="M676.558,509.77c28.064-16.74,15.925-59.422,3.425-82.259"/>
	</g>
	<path fill="none" stroke="#302D7F" stroke-miterlimit="10" d="M24.881,484.654c0.68,0,1.359,0,2.041,0"/>
	<path opacity="0.54" fill="#1B1935" enable-background="new    " d="M348.229,414.241c-11.441,11.951-47.309,0.575-57.598-10.099
		c-16.17-16.777,0.049-38.521-13.621-56.38c13.639,4.095,118.525-18.819,99.791,19.539"/>
	<path fill="#F6F6F6" stroke="#DADADA" d="M462.51,383.128c3.786-5.429,10.199-8.997,17.47-8.997c6.499,0,12.313,2.852,16.176,7.334
		c3.056,3.541,4.893,8.099,4.893,13.074c0,11.271-9.433,20.408-21.066,20.408s-21.065-9.137-21.065-20.408
		C458.916,390.312,460.242,386.386,462.51,383.128z"/>
	<path fill="#E30D18" stroke="#E30D18" stroke-width="3" d="M554.557,400.133"/>
	<line fill="none" x1="474.518" y1="391.506" x2="505.851" y2="390.506"/>
	<line fill="none" x1="477.223" y1="382.8" x2="508.557" y2="381.8"/>
	<path fill="none" stroke="#9E9D9C" d="M542.761,386.307"/>
	<path fill="none" stroke="#9E9D9C" d="M505.685,380.8"/>
	<path fill="#F6F6F6" stroke="#DADADA" d="M689.621,378.559c3.785-5.429,10.196-8.997,17.469-8.997c6.5,0,12.312,2.852,16.176,7.334
		c3.055,3.541,4.892,8.099,4.892,13.074c0,11.271-9.432,20.408-21.066,20.408s-21.067-9.137-21.067-20.408
		C686.023,385.743,687.35,381.816,689.621,378.559z"/>
	<line fill="none" x1="657.953" y1="369.261" x2="689.286" y2="368.261"/>
	<line fill="none" x1="626.62" y1="370.261" x2="657.953" y2="369.261"/>
	<path fill="none" stroke="#9E9D9C" d="M692.158,373.768"/>
	<path fill="none" stroke="#9E9D9C" d="M655.081,368.261"/>
	<ellipse fill="#29265B" stroke="#9E9D9C" stroke-width="3" cx="479.982" cy="394.539" rx="8.635" ry="5.705"/>
	<ellipse fill="#29265B" stroke="#9E9D9C" stroke-width="3" cx="707.091" cy="389.97" rx="8.635" ry="5.705"/>
	<ellipse fill="#2A3180" cx="707.091" cy="373.767" rx="17.646" ry="8.512"/>
	<ellipse fill="#2A3180" cx="479.983" cy="378.073" rx="17.646" ry="8.512"/>
	<ellipse fill="#FFFFFF" cx="815.315" cy="302.497" rx="1.333" ry="1.667"/>
	<ellipse fill="#FFFFFF" cx="625.286" cy="431.953" rx="1.333" ry="1.667"/>
	<ellipse fill="#FFFFFF" cx="609.781" cy="435.287" rx="1.333" ry="1.667"/>
	<path fill="none" stroke="#585857" stroke-width="3" d="M407.746,400.167c9.32-5.424,15.297-11.733,15.334-22.667"/>
	<g>
		<g>
			<path fill="#E1EEFA" d="M548.7,162.586c8.404-3.739,12.286-22.059,2.051-30.05c-4.954-3.868-14.03-0.803-20.152-2.054
				c-3.379-0.691-13.603-6.129-17.896-5.986c-9.772,0.325-66.783,23.221-72.137,12.128c-9.287-19.249,41.894-50.9,54.581-53.641
				c27.641-5.971,55.168,11.001,65.992,35.396c21.328-23.541,45.557-37.409,79.557-33.787c26.599,2.834,60.823,26.148,57.703,57.684
				c-9.695-1.517-21.842-11.205-27.594-0.491c-17.097-14.646-20.929-1.769-33.762,6.548c-8.858-25.699-21.869-36.884-46.296-19.797
				c-23.673,16.56-23.65,33.137-22.047,58.05"/>
			<path fill="#D7DCE9" d="M567.75,171.347c-0.002-5.386,0.458-10.83,1.936-16.07c1.459-5.238,4.026-10.176,7.425-14.436
				c3.394-4.276,7.494-7.925,11.85-11.155c4.36-3.212,9.034-6.144,14.277-7.955c2.614-0.891,5.388-1.472,8.221-1.47
				c2.827,0.001,5.688,0.645,8.244,1.902c2.563,1.249,4.801,3.049,6.708,5.083c1.913,2.039,3.522,4.309,4.941,6.665
				c2.826,4.728,4.925,9.791,6.736,14.91l-1.869-0.644c2.703-1.77,5.17-3.903,7.641-6.124c2.491-2.185,4.954-4.602,8.269-6.219
				c1.648-0.791,3.555-1.27,5.452-1.222c1.898,0.034,3.716,0.532,5.366,1.228c3.306,1.421,6.089,3.51,8.699,5.696l-2.309,0.432
				c0.657-1.231,1.495-2.434,2.62-3.434c1.113-1.006,2.529-1.743,3.989-2.089c2.96-0.69,5.761-0.107,8.292,0.574
				c2.549,0.715,4.939,1.647,7.302,2.491c2.354,0.844,4.696,1.628,6.979,1.991l-1.944,1.505c0.721-7.161-0.676-14.444-3.813-20.935
				c-3.117-6.514-7.814-12.25-13.281-17.066c-5.48-4.821-11.742-8.775-18.403-11.802c-6.659-3.009-13.771-5.138-20.966-5.87
				c-7.34-0.749-14.716-0.712-21.963,0.341c-7.24,1.043-14.313,3.124-20.963,6.164c-6.654,3.034-12.877,7-18.659,11.545
				c-5.779,4.556-11.107,9.71-16.095,15.188l-2,2.197l-1.197-2.71c-5.086-11.515-13.996-21.316-24.872-27.707
				c-5.438-3.197-11.386-5.532-17.553-6.796c-6.164-1.267-12.547-1.447-18.756-0.451c-0.776,0.127-1.548,0.264-2.319,0.425
				c-0.401,0.077-0.736,0.156-1.082,0.25c-0.354,0.097-0.717,0.206-1.079,0.326c-1.449,0.481-2.915,1.085-4.359,1.733
				c-2.896,1.305-5.741,2.795-8.537,4.371c-5.591,3.163-10.995,6.693-16.161,10.517c-5.164,3.82-10.117,7.951-14.479,12.591
				c-2.17,2.322-4.188,4.78-5.857,7.417c-1.656,2.628-2.982,5.481-3.355,8.398c-0.184,1.452-0.105,2.904,0.285,4.27
				c0.1,0.342,0.213,0.678,0.352,1.008c0.063,0.167,0.143,0.326,0.213,0.49l0.111,0.22l0.076,0.116
				c0.285,0.42,0.746,0.781,1.33,1.063c1.186,0.562,2.709,0.796,4.23,0.884c1.531,0.085,3.109,0.026,4.688-0.102
				c6.335-0.559,12.676-2.009,18.948-3.564c6.279-1.583,12.517-3.38,18.754-5.207c6.248-1.809,12.443-3.752,18.868-5.199
				c0.807-0.173,1.622-0.331,2.463-0.448c0.422-0.058,0.849-0.104,1.301-0.121l0.334-0.004l0.361,0.016
				c0.229,0.014,0.449,0.04,0.668,0.07c1.736,0.266,3.3,0.809,4.853,1.37c3.093,1.141,6.056,2.514,9.039,3.736
				c0.744,0.3,1.493,0.594,2.232,0.826c0.715,0.229,1.484,0.34,2.264,0.422c1.564,0.152,3.173,0.117,4.788,0.056
				c3.227-0.106,6.539-0.441,9.854,0.238c1.631,0.334,3.296,1.067,4.526,2.209c1.279,1.106,2.347,2.406,3.192,3.844
				c1.691,2.88,2.455,6.218,2.461,9.502c0.009,3.29-0.666,6.574-2.012,9.559c-1.345,2.941-3.424,5.761-6.442,7.094
				c2.975-1.417,4.945-4.266,6.192-7.204c1.245-2.981,1.815-6.229,1.716-9.439c-0.105-3.202-0.901-6.409-2.574-9.115
				c-1.681-2.655-4.119-5.028-7.257-5.498c-3.103-0.575-6.353-0.197-9.6-0.017c-1.632,0.095-3.28,0.169-4.958,0.042
				c-0.836-0.07-1.689-0.172-2.531-0.421c-0.817-0.238-1.588-0.524-2.358-0.816c-3.056-1.179-6.027-2.481-9.063-3.529
				c-1.512-0.514-3.054-0.998-4.542-1.191c-1.375-0.192-2.966,0.224-4.519,0.559c-3.117,0.747-6.225,1.691-9.329,2.631l-9.32,2.854
				c-6.222,1.908-12.458,3.793-18.771,5.469c-6.318,1.648-12.685,3.204-19.309,3.878c-1.66,0.155-3.338,0.242-5.057,0.17
				c-1.711-0.092-3.479-0.28-5.266-1.082c-0.879-0.41-1.783-1.033-2.43-1.954l-0.254-0.398l-0.17-0.319
				c-0.094-0.208-0.195-0.412-0.281-0.624c-0.18-0.421-0.332-0.852-0.463-1.291c-0.529-1.757-0.643-3.617-0.439-5.39
				c0.418-3.569,1.908-6.763,3.658-9.641c1.775-2.883,3.875-5.496,6.111-7.951c4.488-4.899,9.518-9.193,14.752-13.171
				c5.259-3.952,10.757-7.558,16.469-10.828c2.862-1.628,5.773-3.172,8.803-4.552c1.518-0.687,3.061-1.335,4.692-1.885
				c0.409-0.136,0.826-0.265,1.254-0.384c0.438-0.123,0.896-0.229,1.292-0.306c0.823-0.175,1.647-0.326,2.476-0.465
				c6.632-1.092,13.461-0.928,20.039,0.396c6.582,1.32,12.914,3.779,18.699,7.147c11.566,6.736,21.046,17.055,26.538,29.333
				l-3.197-0.513c5.075-5.621,10.529-10.948,16.502-15.698c5.96-4.756,12.479-8.892,19.484-12.038
				c6.994-3.162,14.452-5.322,22.049-6.383c7.595-1.073,15.317-1.072,22.877-0.268c7.724,0.821,15.146,3.096,22.117,6.276
				c6.963,3.201,13.495,7.359,19.25,12.462c5.737,5.1,10.718,11.205,14.055,18.247c3.358,7.009,4.86,14.992,4.04,22.762
				l-0.188,1.789l-1.756-0.284c-2.729-0.44-5.193-1.349-7.593-2.231c-2.396-0.892-4.722-1.827-7.045-2.508
				c-2.305-0.671-4.668-1.098-6.691-0.632c-2.023,0.424-3.591,1.914-4.675,3.922l-0.894,1.654l-1.417-1.222
				c-2.452-2.115-5.058-4.084-7.875-5.33c-1.403-0.615-2.857-1.016-4.297-1.06c-1.438-0.051-2.856,0.275-4.217,0.902
				c-2.733,1.269-5.179,3.521-7.689,5.69c-2.507,2.196-5.121,4.407-8.02,6.254l-1.357,0.864l-0.512-1.509
				c-1.711-5.041-3.701-10-6.347-14.553c-2.638-4.507-6.033-8.732-10.6-11.04c-2.264-1.147-4.778-1.749-7.333-1.787
				c-2.556-0.057-5.137,0.419-7.626,1.211c-4.994,1.605-9.624,4.357-13.972,7.428c-4.345,3.086-8.429,6.575-11.821,10.674
				c-3.4,4.084-5.997,8.831-7.535,13.938c-1.553,5.108-2.121,10.484-2.282,15.844c-0.151,5.37,0.095,10.752,0.359,16.127
				C568.145,182.111,567.748,176.738,567.75,171.347z"/>
		</g>
	</g>
</g>
<g>
	<g>
		<g>
			<polygon fill="#DADADA" points="753.379,653.568 161.62,653.301 159.582,534.714 751.342,534.979 			"/>
		</g>
	</g>
	<path fill="none" stroke="#010202" stroke-miterlimit="10" d="M391.277,668.631"/>
	<path fill="none" stroke="#010202" stroke-miterlimit="10" d="M180.967,662.508"/>
	<path fill="none" stroke="#010202" stroke-miterlimit="10" d="M701.375,682.916"/>
	<path fill="none" stroke="#010202" stroke-miterlimit="10" d="M601.375,689.039"/>
	<ellipse fill="#F6F6F6" cx="434.029" cy="594.141" rx="20.408" ry="15.306"/>
	<ellipse fill="#F6F6F6" cx="670.297" cy="595.041" rx="31.078" ry="28.795"/>
	<ellipse fill="#F6F6F6" cx="564.641" cy="594.141" rx="20.408" ry="15.306"/>
	<ellipse fill="#F6F6F6" cx="503.416" cy="595.04" rx="20.408" ry="15.307"/>
	<g>
		<g>
			<polygon fill="#EEEDED" points="752.359,1116.279 160.6,1115.311 160.6,684.248 752.359,685.215 			"/>
		</g>
	</g>
	<path fill="#9E9D9C" d="M346.274,610.713c0,6.627-5.373,12-12,12H203.171c-6.627,0-12-5.373-12-12v-33.145c0-6.627,5.373-12,12-12
		h131.102c6.627,0,12,5.373,12,12L346.274,610.713L346.274,610.713z"/>
	<path fill="none" stroke="#010202" stroke-miterlimit="10" d="M746.273,668.631"/>
	<path fill="none" stroke="#010202" stroke-miterlimit="10" d="M164.641,662.508"/>
	<path fill="none" stroke="#010202" stroke-miterlimit="10" d="M752.318,682.916"/>
	<path fill="none" stroke="#010202" stroke-miterlimit="10" d="M164.641,682.916"/>
	<ellipse fill="#717070" stroke="#010202" stroke-miterlimit="10" cx="511.58" cy="911.488" rx="202.002" ry="187.756"/>
	<ellipse fill="#F6F6F6" cx="215.205" cy="829.855" rx="20.408" ry="15.307"/>
	<ellipse fill="#F6F6F6" cx="215.205" cy="898.997" rx="20.408" ry="15.306"/>
	<g>
		<g>
			<polygon fill="#878787" points="752.357,686.477 160.601,686.396 160.601,650.785 752.357,650.865 			"/>
		</g>
	</g>
	<ellipse fill="#89A5D6" stroke="#010202" stroke-miterlimit="10" cx="511.58" cy="911.489" rx="174.451" ry="167.349"/>
	<path fill="none" d="M446.273,897.203c9.59-20.051,35.131-31.566,51.125-46.484c13.018-12.141,29.762-29.98,40.711-39.23"/>
	<path fill="none" d="M458.518,952.305c31.855-39.266,87.824-82.32,134.695-104.082"/>
	<path fill="none" d="M507.498,968.631c36.486-20.047,68.725-52.908,104.082-73.469"/>
	<path fill="none" d="M403.417,901.283c25.298-0.984,57.933-26.24,80.054-38.266c12.078-6.566,22.828-15.701,34.68-22.559
		c6.58-3.811,33.123-17.559,28.125-14.688"/>
	<g>
		<path fill="#3BA9E0" d="M405.109,1018.842c1.147-3.119,2.362-5.996,3.666-8.926c1.301-2.908,2.679-5.777,4.141-8.609
			c2.927-5.662,6.17-11.186,9.897-16.445c3.736-5.244,7.943-10.264,13.021-14.564c5.066-4.25,11.135-7.895,18.256-8.949
			c3.496-0.486,6.896-0.33,10.17,0.086c3.275,0.422,6.441,1.123,9.539,1.959c6.188,1.68,12.107,3.881,17.932,6.217
			c11.627,4.703,22.863,10.012,34.225,14.932c11.354,4.891,22.816,9.594,34.719,12.451c5.938,1.393,12.016,2.301,18.025,1.977
			c2.982-0.15,5.98-0.732,8.963-1.406c2.973-0.689,5.898-1.582,8.764-2.652c11.48-4.27,21.721-11.67,30.031-20.779
			c4.168-4.559,7.895-9.527,11.174-14.783c3.26-5.264,6.162-10.781,8.363-16.59c-2.025,5.875-4.766,11.494-7.883,16.881
			c-3.135,5.381-6.734,10.502-10.813,15.238c-8.125,9.469-18.338,17.359-30.055,22.131c-2.918,1.191-5.918,2.203-8.971,3.014
			c-3.049,0.785-6.156,1.49-9.377,1.756c-6.404,0.535-12.77-0.236-18.949-1.484c-12.371-2.584-24.137-7.018-35.721-11.596
			c-11.582-4.604-22.979-9.566-34.521-13.836c-5.77-2.117-11.58-4.072-17.434-5.469c-2.92-0.695-5.852-1.246-8.748-1.529
			c-2.889-0.281-5.756-0.297-8.404,0.16c-0.332,0.053-0.658,0.123-0.979,0.189l-0.438,0.104l-0.543,0.146
			c-0.596,0.166-1.281,0.391-1.908,0.627c-1.279,0.477-2.529,1.064-3.748,1.74c-2.438,1.355-4.73,3.066-6.877,4.992
			c-4.301,3.863-8.02,8.541-11.328,13.508c-3.311,4.98-6.221,10.283-8.831,15.738c-1.306,2.73-2.533,5.498-3.687,8.295
			c-1.141,2.779-2.25,5.666-3.162,8.406L405.109,1018.842z"/>
	</g>
	<g>
		<path fill="#3BA9E0" d="M368.158,885.537c1.147-3.119,2.362-5.996,3.666-8.926c1.301-2.908,2.679-5.777,4.143-8.609
			c2.925-5.662,6.17-11.186,9.896-16.445c3.736-5.244,7.943-10.264,13.023-14.566c5.064-4.252,11.133-7.893,18.255-8.945
			c3.497-0.486,6.895-0.33,10.17,0.084c3.275,0.424,6.443,1.125,9.539,1.959c6.189,1.682,12.107,3.881,17.93,6.217
			c11.625,4.705,22.865,10.012,34.229,14.93c11.352,4.893,22.813,9.596,34.717,12.455c5.938,1.389,12.016,2.297,18.021,1.975
			c2.982-0.15,5.98-0.732,8.963-1.406c2.977-0.691,5.9-1.582,8.768-2.652c11.479-4.271,21.721-11.67,30.031-20.781
			c4.168-4.557,7.895-9.523,11.174-14.779c3.26-5.268,6.162-10.781,8.361-16.594c-2.023,5.875-4.768,11.494-7.883,16.883
			c-3.137,5.381-6.732,10.504-10.813,15.236c-8.125,9.469-18.338,17.361-30.053,22.129c-2.92,1.195-5.918,2.205-8.973,3.018
			c-3.047,0.787-6.154,1.488-9.375,1.756c-6.404,0.537-12.771-0.236-18.949-1.482c-12.373-2.584-24.139-7.02-35.723-11.596
			c-11.582-4.605-22.979-9.57-34.521-13.838c-5.77-2.117-11.582-4.07-17.432-5.469c-2.922-0.693-5.854-1.244-8.748-1.527
			c-2.889-0.281-5.756-0.299-8.407,0.158c-0.332,0.053-0.658,0.125-0.979,0.188l-0.438,0.105l-0.542,0.143
			c-0.597,0.168-1.281,0.395-1.908,0.627c-1.279,0.48-2.53,1.068-3.748,1.746c-2.438,1.355-4.73,3.066-6.878,4.99
			c-4.3,3.865-8.019,8.543-11.328,13.51c-3.311,4.98-6.221,10.283-8.83,15.736c-1.307,2.729-2.533,5.498-3.687,8.297
			c-1.141,2.779-2.25,5.666-3.163,8.404L368.158,885.537z"/>
	</g>
	<g>
		<path fill="#3BA9E0" d="M634.15,876.988c-1.146,3.121-2.361,6-3.666,8.93c-1.301,2.908-2.68,5.779-4.143,8.613
			c-2.928,5.662-6.174,11.188-9.9,16.447c-3.736,5.246-7.947,10.268-13.029,14.57c-2.543,2.141-5.313,4.094-8.359,5.666
			c-1.523,0.785-3.109,1.479-4.762,2.035c-0.832,0.277-1.645,0.52-2.529,0.738l-0.566,0.139l-0.662,0.143
			c-0.451,0.1-0.854,0.164-1.283,0.244c-6.791,1.113-13.414,0.379-19.707-0.885c-6.309-1.307-12.361-3.223-18.283-5.363
			c-11.84-4.32-23.162-9.553-34.492-14.627c-5.664-2.543-11.32-5.064-17.029-7.42c-5.709-2.35-11.469-4.557-17.336-6.305
			c-5.854-1.725-11.873-3.07-17.85-2.979c-1.502,0.033-2.941,0.166-4.439,0.434c-1.508,0.254-2.998,0.551-4.486,0.895
			c-2.975,0.691-5.9,1.582-8.768,2.652c-11.486,4.27-21.731,11.666-30.045,20.779c-4.169,4.559-7.897,9.529-11.178,14.785
			c-3.263,5.266-6.164,10.785-8.367,16.596c2.026-5.877,4.769-11.498,7.885-16.885c3.137-5.383,6.74-10.506,10.819-15.244
			c8.129-9.469,18.347-17.361,30.064-22.129c2.92-1.191,5.92-2.203,8.977-3.012c1.523-0.404,3.074-0.762,4.623-1.068
			c1.551-0.324,3.207-0.533,4.811-0.613c6.48-0.293,12.781,0.951,18.867,2.537c6.096,1.619,12.02,3.689,17.871,5.893
			c5.848,2.211,11.615,4.574,17.363,6.949c11.488,4.738,22.906,9.592,34.551,13.443c5.814,1.912,11.693,3.566,17.598,4.602
			c5.881,1.012,11.857,1.41,17.34,0.322c5.406-1.025,10.285-3.99,14.588-7.85c4.303-3.865,8.021-8.543,11.334-13.51
			c3.311-4.982,6.223-10.287,8.834-15.742c1.305-2.729,2.533-5.5,3.686-8.299c1.143-2.779,2.252-5.666,3.166-8.406L634.15,876.988z"
			/>
	</g>
</g>
</svg>
